<?xml version="1.0" encoding="utf-8"?>
<!-- Generator: Adobe Illustrator 17.1.0, SVG Export Plug-In . SVG Version: 6.00 Build 0)  -->
<!DOCTYPE svg PUBLIC "-//W3C//DTD SVG 1.1//EN" "http://www.w3.org/Graphics/SVG/1.1/DTD/svg11.dtd">
<svg version="1.1" id="圖層_1" xmlns="http://www.w3.org/2000/svg" xmlns:xlink="http://www.w3.org/1999/xlink" x="0px" y="0px"
	 viewBox="0 0 80 168" enable-background="new 0 0 80 168" xml:space="preserve">
<g>
	<path fill-rule="evenodd" clip-rule="evenodd" fill="#FF9292" d="M76.7,24.4c-0.1-0.4-0.1-0.9-0.3-1.3c-0.4-1.2-0.8-2.7-1.5-3.8
		c-0.5-1.1-1.2-2-2.1-2.8c-0.5-0.8-1.1-1.6-1.3-1.8c-0.1-0.1-0.2-0.3-0.3-0.4c-0.8-0.8-1.6-1.6-2.5-2.2c-2.3-1.6-4.1-1.9-6.7-2.4
		c-1.2-0.2-2.9,0.1-3.9,0.1c-0.3,0-0.7,0.1-1,0.2c-1.6,0.4-3.1,1-4.6,1.8c-1.7,0.9-3.3,2.1-4.9,3.2c-2.1,1.4-4.3,2.8-6.3,4.3
		c-2.2,1.7-4,3.7-5.7,5.8c-0.3-0.7-0.5-1.4-0.8-2.1c-0.9-2.1-1.8-4.2-2.9-6.2c-0.5-1-1.1-2-1.7-3c-0.3-0.5-0.6-0.9-0.9-1.4
		c-0.6-1-1.3-1.9-1.9-2.9c-0.2-0.2-0.3-0.5-0.5-0.7c-0.7-0.8-1.3-1.6-2.1-2.4C24,5.7,23,4.9,22.1,4.1c-0.2-0.2-0.5-0.4-0.7-0.5
		c-1.8-1.2-4.4-2.3-6.6-2.3c-2.4,0-3.9,0.2-6.1,1.2C7.1,3.3,5.3,4.7,4.3,6.3C4.2,6.4,4,6.5,3.9,6.6c-1.4,1-2,2.5-2.8,4.1
		C1,10.8,1,10.9,1,11c-0.2,1-0.4,1.9-0.6,2.9c-0.1,0.5-0.2,1-0.2,1.5c-0.2,1.2-0.3,2.9,0,4c0.1,1.2,0.3,2.4,0.5,3.6
		c0.5,1.9,1.1,3.7,1.9,5.5c0.3,0.6,0.5,1.2,0.8,1.8c0.3,1.3,0.6,2.5,0.9,3.8c1.4,4.7,3.1,9.4,5.8,13.6c1.5,2.4,3.2,4.9,5.1,7
		c1.4,1.5,2.9,3,4.4,4.4c0,0,0,0,0,0c0.1,0.3,0.3,0.6,0.4,0.9c1.2,2.5,3.4,4.4,6,5.3c1.5,0.5,3.2,0.7,4.7,0.5
		c1.1,0.3,2.3,0.5,3.4,0.6c1.3,0,2.6-0.1,3.9-0.3c0.4-0.1,0.8-0.2,1.2-0.3c1.6-0.6,3.1-1,4.5-1.9c1.4-0.9,2.8-1.8,4.1-2.9
		c1.1-0.9,2.1-1.8,3.2-2.7c0.7-0.4,1.5-0.8,2.2-1.2c1-0.5,2-0.9,2.9-1.5c1.7-1.1,3.3-2.2,4.9-3.5c0.8-0.7,1.7-1.5,2.5-2.3
		c1.3-1.2,2.5-2.5,3.7-3.8c1.7-1.8,3.4-3.7,4.8-5.8c1.1-1.6,1.9-3.4,2.8-5.1c0.4-0.9,0.8-1.8,1-2.8c0.3-1.3,0.6-2.7,0.8-4
		C77,27.2,76.9,25.8,76.7,24.4z"/>
	<path fill-rule="evenodd" clip-rule="evenodd" fill="#FCD2CA" d="M70.9,29.7c0-0.9-0.1-1.7-0.2-2.6c-0.2-1.5-0.6-2.9-1.1-4.3
		c-0.2-0.6-0.7-1.2-1.1-1.8c-0.3-0.5-0.7-0.9-1.1-1.3c-0.3-0.2-0.8-0.1-0.7,0.3c0.1,0.4,0.2,0.9,0.3,1.3c0,0.1,0,0.2,0,0.4
		c0,0,0,0,0,0c0,0.1,0,0.1,0,0.2c0,0.3,0,0.6,0,0.8c0,0.2,0,0.4,0,0.6c0-0.4,0,0.1,0,0.1c0,0.3,0,0.5,0,0.8c0,0.6,0,1.2-0.1,1.8
		c0,0.3-0.1,0.6-0.1,0.8c0,0.1,0,0.3-0.1,0.4c-0.1,0.6-0.3,1.1-0.5,1.7c-0.2,0.5-0.5,1-0.6,1.6c-0.1,0.4-0.3,0.7-0.4,1.1
		c-0.1,0.2-0.2,0.4-0.3,0.6c-0.1,0.2-0.1,0.4-0.1,0.6c0,0.2-0.1,0.4-0.2,0.5c-0.3,0.7-0.1,1.6,0.4,2.2c0.6,0.7,1.8,1,2.7,0.5
		c0.7-0.4,1.6-1,2-1.7c0.4-0.7,0.7-1.5,1-2.3C70.9,31.5,70.9,30.6,70.9,29.7z"/>
	<path fill-rule="evenodd" clip-rule="evenodd" d="M35.7,32.2c1.2-7.7,4.2-12.8,9.6-16.3c4.5-3,11.6-6.7,18.5-6.2
		c8.6,0.6,16.2,8.6,15.8,17.5C79,39.5,70,48.4,62.2,54c-8.5,6.1-19.1,9.7-25.7,17.2c3.5,5.5,0,18.7,1,26.1c0.9,6.6,4.4,9.7,7.1,14.9
		c0.7,1.4,1.3,3.8,1.3,5.3c-0.1,14.8-11.9,22.1-13.7,34.8c-0.9,6,0.5,12.2,3.7,14.9c-4.4-1.8-4.8-7.4-4.8-12.2
		c0-15,14.9-22.1,13.8-38.6c-0.4-6.8-6.6-9.1-8.2-18.1c-1-5.8,0.3-15.4,0.7-20.9c0.5-7.6-3.5-4.6-6.4-1.5c0.9,1,1.7,2,3.1,2.6
		c0.2-2.1,0-5.6,1.6-5.3c-0.7,1.7-0.4,4.6-1,6.4c-2.4-0.5-3.4-2.4-5-3.6c1.6-1.4,3.5-2.4,4.8-4.2c-8.2-6.8-18-12.5-24.7-22
		C1.4,37.8-8.8,5,13.5,0.2c8.3-1.8,13.7,8.7,16.4,13.6C33.1,19.6,34.5,25.8,35.7,32.2z M70.1,24.4c0.5,0.1,0.7,0.4,1.2,0.4
		c1.2,2.4,0.1,6.8-1.8,8C70.3,30.4,72.5,26.3,70.1,24.4z M67.3,35.2c0.3-4.3,4.1-13.7-0.5-16.6C70.9,19.4,70.1,31,67.3,35.2z
		 M29.7,16.4c-2.5-5.1-6.4-12.9-11.8-14.7C9.4-1.1,2,8.1,1.1,14.9C-0.7,28,5.1,41,10.9,49.3c6.5,9.4,16.4,15,24.4,21.7
		c6.8-8.8,18.3-11.6,27.4-18.9c7.1-5.7,14.8-13.9,15.4-25c0.4-7.7-6.5-14.9-13.6-15.9c-8.2-1.1-17.8,3.9-22.2,8.6
		c-3.6,3.8-4.4,10.2-6.3,16C33.2,30.3,32.8,22.6,29.7,16.4z"/>
</g>
</svg>
