<?xml version="1.0" encoding="utf-8"?>
<!-- Generator: Adobe Illustrator 17.1.0, SVG Export Plug-In . SVG Version: 6.00 Build 0)  -->
<!DOCTYPE svg PUBLIC "-//W3C//DTD SVG 1.1//EN" "http://www.w3.org/Graphics/SVG/1.1/DTD/svg11.dtd">
<svg version="1.1" id="圖層_1" xmlns="http://www.w3.org/2000/svg" xmlns:xlink="http://www.w3.org/1999/xlink" x="0px" y="0px"
	 viewBox="0 0 1170 75" enable-background="new 0 0 1170 75" xml:space="preserve">
<path id="item1" fill="#FFF8E1" d="M788,51.1c0.1-0.4,0.1-0.8,0.1-1.3c0-3.9-3.2-7.1-7.1-7.1c-1,0-2,0.2-2.9,0.6c-1.1-5.2-5.6-9-11.1-9
	c-5.3,0-9.7,3.6-11,8.4c-1.5-1-3.3-1.6-5.3-1.6c-5.2,0-9.4,4.2-9.6,9.3c-2.7,1.2-4.6,4-4.6,7.2c0,4.3,3.6,7.9,7.9,7.9h39.3
	c4.3,0,7.9-3.6,7.9-7.9C791.6,55,790.2,52.5,788,51.1z"/>
<path id="item2" fill="#FFF8E1" d="M983.7,58.8c0.1-0.4,0.1-0.9,0.1-1.3c0-4.2-3.4-7.5-7.5-7.5c-1.1,0-2.1,0.2-3.1,0.7c-1.1-5.5-6-9.6-11.8-9.6
	c-5.6,0-10.3,3.8-11.7,9c-1.6-1.1-3.5-1.7-5.6-1.7c-5.5,0-10,4.4-10.2,9.9c-2.9,1.3-4.9,4.3-4.9,7.6c0,4.6,3.8,8.4,8.4,8.4h41.8
	c4.6,0,8.4-3.8,8.4-8.4C987.6,62.9,986,60.3,983.7,58.8z"/>
<path id="item3" fill="#FFF8E1" d="M592.8,53.1H591c-0.3-4.2-3.9-7.6-8.3-7.6c-1,0-1.9,0.2-2.8,0.5c0-0.2,0-0.3,0-0.5c0-5.9-4.9-10.8-11-10.8
	c-1.6,0-3.2,0.4-4.6,1c-2.7-2.6-6.4-4.2-10.5-4.2c-6.1,0-11.3,3.5-13.7,8.6c-0.5-0.1-0.9-0.1-1.4-0.1c-6.4,0-11.6,5.1-11.6,11.3
	c0,0.7,0.1,1.3,0.2,2c-2.8,0.8-4.8,3.4-4.8,6.4c0,3.7,3,6.7,6.7,6.7h63.5c3.7,0,6.7-3,6.7-6.7C599.5,56.1,596.5,53.1,592.8,53.1z"/>
<path id="item4" fill="#FFF8E1" d="M879,23h-1.9c-0.3-4.5-4.2-8.1-8.9-8.1c-1.1,0-2.1,0.2-3,0.5c0-0.2,0-0.3,0-0.5c0-6.4-5.3-11.5-11.8-11.5
	c-1.7,0-3.4,0.4-4.9,1c-2.9-2.8-6.9-4.5-11.2-4.5c-6.5,0-12.1,3.8-14.6,9.2c-0.5-0.1-1-0.1-1.5-0.1c-6.8,0-12.4,5.4-12.4,12.1
	c0,0.7,0.1,1.4,0.2,2.1c-3,0.9-5.2,3.6-5.2,6.9c0,4,3.2,7.2,7.2,7.2H879c4,0,7.2-3.2,7.2-7.2C886.1,26.3,882.9,23,879,23z"/>
<path id="item5" fill="#FFF8E1" d="M1119,32.5h-1.9c-0.3-4.5-4.2-8.1-8.9-8.1c-1.1,0-2.1,0.2-3,0.5c0-0.2,0-0.3,0-0.5c0-6.4-5.3-11.5-11.8-11.5
	c-1.7,0-3.4,0.4-4.9,1c-2.9-2.8-6.9-4.5-11.2-4.5c-6.5,0-12.1,3.8-14.6,9.2c-0.5-0.1-1-0.1-1.5-0.1c-6.8,0-12.4,5.4-12.4,12.1
	c0,0.7,0.1,1.4,0.2,2.1c-3,0.9-5.2,3.6-5.2,6.9c0,4,3.2,7.2,7.2,7.2h67.9c4,0,7.2-3.2,7.2-7.2C1126.2,35.8,1123,32.5,1119,32.5z"/>
<animateMotion xlink:href="#item1" path="M 0 0 H 30 Z" dur="8s" repeatCount="indefinite" />
<animateMotion xlink:href="#item2" path="M 0 0 H 50 Z" dur="12s" repeatCount="indefinite" />
<animateMotion xlink:href="#item3" path="M 0 0 H 40 Z" dur="10s" repeatCount="indefinite" />
<animateMotion xlink:href="#item4" path="M 0 0 H 60 Z" dur="15s" repeatCount="indefinite" />
<animateMotion xlink:href="#item5" path="M 0 0 H 70 Z" dur="20s" repeatCount="indefinite" />
</svg>
