<?xml version="1.0" encoding="utf-8"?>
<!-- Generator: Adobe Illustrator 17.1.0, SVG Export Plug-In . SVG Version: 6.00 Build 0)  -->
<!DOCTYPE svg PUBLIC "-//W3C//DTD SVG 1.1//EN" "http://www.w3.org/Graphics/SVG/1.1/DTD/svg11.dtd">
<svg version="1.1" id="圖層_1" xmlns="http://www.w3.org/2000/svg" xmlns:xlink="http://www.w3.org/1999/xlink" x="0px" y="0px"
	 viewBox="0 0 191 38" enable-background="new 0 0 191 38" xml:space="preserve">
<g>
	<path id="item1" fill-rule="evenodd" clip-rule="evenodd" fill="#FFFFFF" d="M189,22.3c0.4-0.8,1-1.8,1.2-2.7c0.6-2.2,0.8-4,0.5-6.3
		c-0.2-1.5-1-2.9-2-4c-1.4-1.7-3.6-2.7-5.7-2.8c-1.6-0.1-3.5,0.2-4.8,1.1c-0.3,0.2-0.5,0.4-0.8,0.5c0-0.3-0.1-0.6-0.2-0.9
		c-0.5-1.7-0.9-2.7-2.1-4.1c-1.1-1.3-2.2-1.8-3.7-2.5C171,0.3,169.2,0,169.3,0c-0.8-0.1-1.6,0.1-2.4,0.1c-0.2,0-0.3,0.1-0.5,0.1
		c-0.6,0.2-1.6,0.5-2.2,0.8c-1,0.5-1.9,1.2-2.7,1.9c0,0,0,0-0.1,0.1c-0.7-0.6-1.5-1-2.4-1.3c-0.7-0.2-1.8-0.5-2.7-0.5
		c-1.5,0.1-3,0.1-4.4,0.9c0.4-0.2-1.3,0.7-1.8,1.2c-1.6,1.8-1.1,1.1-2.3,3.3c-0.2,0.5-0.4,1.1-0.4,1.6c-0.3,0.6-0.4,1.3-0.5,2
		c-0.6,0.2-1.2,0.4-1.7,0.6c-0.8,0.3-1.7,1-2.4,1.5c-0.3,0.2-0.5,0.4-0.7,0.6c-0.6,0.6-1.3,1.3-1.7,2.1c-1,1.8-1,2.1-1.4,4.1
		c-0.2,0.9,0,1.9,0.1,2.7c0.3,1.7,1.3,3.4,2.4,4.7c1.2,1.5,2.6,2.2,4.3,3c1.1,0.6,2.5,0.7,3.8,1c1.7,0.3,3.5,0.3,5.2,0.1
		c0.3,1,0.7,1.4,1.5,2.6c0.9,1.3,2.5,2,3.8,2.6c0.2,0.1,0.4,0.2,0.6,0.2c0.4,0.1,0.7,0.2,1.1,0.3c2.5,0.7,5.2,0.3,7.5-0.8
		c0.5-0.2,0.9-0.5,1.3-0.8c0.8,0.2,1.7,0.3,2.2,0.4c0.2,0,0.4,0.1,0.6,0.1c0.1,0.1,0.2,0.1,0.3,0.2c0.8,0.5,1.6,0.9,2.5,1.2
		c0.9,0.3,1.8,0.5,2.7,0.5c2,0.1,2.8-0.2,4.6-0.9c1.5-0.6,2.5-1.8,3.4-3c0.6-0.7,1-1.5,1.2-2.4c0.5-1.9,0.8-3.9,0.2-5.9
		c-0.2-0.6-0.4-1.2-0.6-1.7c0.2-0.2,0.4-0.5,0.6-0.7C188.7,22.8,188.9,22.5,189,22.3z"/>
	<path id="item2" fill-rule="evenodd" clip-rule="evenodd" fill="#FFFFFF" d="M37.1,24.4c-0.1-1.1-0.9-2.4-1.6-3.2c-1.1-1.2-2.7-1.9-4.4-1.7
		c-0.4-0.6-0.9-1.1-1.5-1.5c-0.2-1-0.8-1.8-1.3-2.7c-0.6-0.9-1.6-1.4-2.6-1.8c-0.6-0.3-1.4-0.4-2.1-0.5c-1.9-0.1-3.8,0.4-5.4,1.4
		c0-0.1-0.1-0.1-0.1-0.1c-0.4-0.4-0.8-0.8-1.3-1.1c-1.2-0.7-1.5-0.7-2.8-1c-0.7-0.1-1.4-0.1-2.1,0.2c-1.1,0.4-2,0.7-2.9,1.5
		c-1.4,1.3-2.3,3.1-2.5,4.9c-0.1,0-0.2,0-0.3,0c-0.5,0.1-1,0.3-1.6,0.5c-0.6,0.2-1.2,0.7-1.7,1.1c-0.4,0.4-0.7,0.8-1,1.2
		c-0.3,0.3-0.6,0.6-0.8,1c-1,1.4-1.4,3.5-0.9,5.1c0.3,1,0.7,1.9,1.4,2.7c0.7,0.8,1.7,1.5,2.8,1.8c0.6,0.1,1.2,0.3,1.8,0.3
		c0.6,0,1.3,0,1.9-0.1c0.7-0.2,1.3-0.5,1.8-0.8c0.3,0.4,0.6,0.8,0.9,1.2c1,1,2.3,2.1,3.7,2.5c0.7,0.2,1.5,0.4,2.3,0.4
		c1.7,0,2.1-0.2,3.6-0.7c0.1-0.1,0.3-0.1,0.4-0.2c0.5-0.3,1.1-0.7,1.6-1.1c0.2-0.2,0.3-0.3,0.4-0.4c0.1,0,0.1,0.1,0.2,0.1
		c0.4,0.2,0.9,0.4,1.3,0.7c1,0.3,2,0.4,3,0.2c0.5-0.2,0.9-0.3,1.4-0.5c0.9-0.4,1.6-1.1,2.2-1.9c0.1-0.1,0.1-0.2,0.2-0.3
		c0.3,0,0.5-0.1,0.8-0.1c0.3-0.1,0.7-0.1,1-0.3c0.4-0.1,0.7-0.2,1.1-0.4c0.7-0.4,1.3-0.9,1.8-1.5c0.1-0.2,0.3-0.4,0.4-0.6
		c0,0,0.5-0.9,0.6-1.3C37.3,25.7,37.2,26,37.1,24.4z"/>
	<animateMotion xlink:href="#item1" path="M 0 0 H -10 Z" dur="10s" repeatCount="indefinite" />
	<animateMotion xlink:href="#item2" path="M 0 0 H 20 Z" dur="8s" repeatCount="indefinite" />
</g>
</svg>
