<?xml version="1.0" encoding="utf-8"?>
<!-- Generator: Adobe Illustrator 17.1.0, SVG Export Plug-In . SVG Version: 6.00 Build 0)  -->
<!DOCTYPE svg PUBLIC "-//W3C//DTD SVG 1.1//EN" "http://www.w3.org/Graphics/SVG/1.1/DTD/svg11.dtd">
<svg version="1.1" id="圖層_1" xmlns="http://www.w3.org/2000/svg" xmlns:xlink="http://www.w3.org/1999/xlink" x="0px" y="0px"
	 viewBox="0 0 214.2 142.7" enable-background="new 0 0 214.2 142.7" xml:space="preserve">
<g>
	<g>
		<path fill-rule="evenodd" clip-rule="evenodd" fill="#F9E3B2" d="M112.7,35.2c0.1-1.8-0.1-3.5-0.3-5.3c-0.2-1.7-0.9-3.4-1.5-4.9
			c-0.6-1.6-1.7-3-2.6-4.4c-1-1.4-2.5-2.6-3.7-3.7c-1.5-1.4-3.4-2.2-5.2-3.1c-0.9-0.5-1.9-0.8-3-1c-2-0.4-3.9-0.9-5.9-0.9
			c-2,0-4.1,0.2-6,0.5c-1,0.2-2.1,0.5-3.1,0.8c-0.9-0.2-1.7-0.3-2.6-0.5c-1.4-0.2-2.7-0.4-4.1-0.4c-2.2-0.1-4.5,0.2-6.7,0.4
			c-1.4,0.1-2.8,0.4-4.2,0.8c-2,0.6-4.1,1.3-5.9,2.4c-1.2,0.7-2.5,1.5-3.5,2.5c-1.1,0.9-2,2.1-2.9,3.2c-0.9,1.1-1.5,2.6-2.1,3.9
			c-0.3,0.6-0.5,1.3-0.7,2c-0.4,1.5-0.7,3.2-0.8,4.8c0,0.3,0,0.5,0,0.8c-0.1,0.3-0.2,0.6-0.3,0.9c-0.3,0.7-0.5,1.5-0.6,2.2
			c-0.4,1.7-0.8,3.5-0.9,5.3c0,0.3,0,0.7,0,1.1c0,1.4,0.1,2.9,0.3,4.3c0.2,1.7,1,3.5,1.5,5c0.6,1.6,1.8,3.1,2.7,4.5
			c0.7,0.9,1.6,1.8,2.5,2.5c1.1,1,2.2,2,3.4,2.8c1.6,1.1,3.5,1.9,5.3,2.8c1.8,0.9,3.6,1.6,5.5,2.2c0.9,0.3,1.8,0.5,2.7,0.8
			c2,0.5,3.9,0.9,5.9,1c1,0.1,2.1,0.1,3.1,0.1c0.5,0.7,1.3,1.2,2.2,1.3c1.2,0.1,2.2-0.6,2.7-1.6c0.4,0,0.9-0.1,1.3-0.1
			c1.7-0.2,3.4-0.5,5-1.1c1.7-0.6,3.6-1.1,5.3-1.9c1.7-0.8,3.2-1.9,4.7-3c1.5-1.1,2.7-2.6,3.9-4c0.5-0.6,0.9-1.2,1.3-1.9
			c0.7-1.2,1.4-2.4,1.8-3.8c0.1-0.4,0.2-0.7,0.3-1.1c0.3-0.4,0.6-0.9,0.8-1.3c1.3-2.2,2.5-4.6,3.3-7.1c0.5-1.7,0.9-3.5,1.2-5.3
			C112.6,36.8,112.7,36,112.7,35.2z"/>
		<g>
			<path fill-rule="evenodd" clip-rule="evenodd" fill="#F9E3B2" d="M199.3,48.6c0,0.1,0,0.2,0,0.3C199.4,49,199.4,49.1,199.3,48.6z
				"/>
			<path fill-rule="evenodd" clip-rule="evenodd" fill="#F9E3B2" d="M199.4,48.8c0-0.2-0.1-0.6-0.1-0.7c-0.5-1-1.5-1.3-2.5-1.4
				c-0.6,0-1.2,0-1.8,0l0,0c0.1,0,0.2,0,0.3,0c-0.1,0-0.2,0-0.3,0c0.1-0.7,0.2-1.4,0.3-2.1c0.2-2-0.1-4-0.2-6.1
				c-0.1-0.9-0.2-1.7-0.4-2.6c-0.4-1.5-0.9-2.9-1.4-4.3c-0.2-0.4-0.3-0.9-0.5-1.3c-0.8-1.7-1.9-3.3-3-4.8c-1.1-1.4-2.6-2.6-3.9-3.8
				c-0.5-0.5-1.2-0.9-1.8-1.3c-2.3-1.3-4.6-2.4-7.2-3.1c-1.9-0.5-3.8-0.8-5.7-1.2c-0.9-0.2-1.7-0.3-2.6-0.4c-2-0.2-4,0.1-5.9,0.2
				c-0.8,0.1-1.7,0.2-2.5,0.4c-1.9,0.4-3.7,1.1-5.4,1.9c-0.8,0.3-1.5,0.7-2.2,1.2c-1.6,1-3.2,2-4.6,3.4c-1.4,1.3-2.7,2.8-3.8,4.3
				c-1.2,1.6-2,3.5-2.8,5.2c-0.1,0.1-0.1,0.3-0.2,0.4c-0.4-0.1-0.8-0.2-1.4-0.3c-0.4-0.1-0.7-0.1-1.1-0.2c-1.1-0.2-2.4,0.4-3.2,1.1
				c-0.9,0.8-1.4,1.9-1.5,3.1c-0.1,1.2,0.3,2.4,1.1,3.2c0.7,0.8,2,1.6,3.1,1.5c0.3,0,0.6,0,0.9,0c-0.4,2.1-0.7,4.1-0.8,6.2
				c-0.1,2.3,0,4.7,0.3,7c0.2,1.5,0.8,3.6,1.4,4.6c0.6,1,1.6,2.7,2.6,3.7c0.1,0.1,0.2,0.2,0.3,0.3c0.5,0.8,1.1,1.7,1.8,2.5
				c0.3,0.3,0.6,0.6,0.9,0.9c1.1,1,2.2,2.1,3.4,2.9c1.5,1.1,3.3,1.9,5,2.6c0.4,0.1,0.7,0.2,1.1,0.3c0.6,0.2,1.2,0.3,1.8,0.4
				c0,0.1-0.1,0.1-0.1,0.2c-0.2,0.3-0.3,0.7-0.3,1.1c0,0,0,0,0,0c0,0,0,0,0,0c0,0.2,0,0.5,0,0.7c0.3,1.4,1.8,2.5,3.2,2.1
				c0.7-0.2,1.5-0.6,1.8-1.2c0.4-0.8,0.6-1.4,0.5-2.3c2,0,3.9-0.1,5.9-0.4c2.9-0.4,5.6-1.4,8.3-2.3c1.7-0.6,3.3-1.4,4.7-2.4
				c1.5-1,3.2-2,4.6-3.3c0.6-0.6,1.2-1.1,1.8-1.8c1.3-1.5,2.7-2.9,3.7-4.5c0.9-1.6,1.8-3.2,2.5-4.9c0,0,0,0,0,0
				c0.9,0.4,2.1,0.3,3-0.2c0.7-0.4,1.1-0.9,1.6-1.5c0.3-0.3,0.4-0.6,0.7-1c0.2-0.3,0.4-0.7,0.7-1C199.3,49.9,199.4,49.4,199.4,48.8z
				"/>
		</g>
		<g>
			<path fill-rule="evenodd" clip-rule="evenodd" fill="#F8991D" d="M119.6,35.6c-0.3-0.5-0.6-0.8-1.1-1c-0.2-0.1-0.3-0.1-0.5-0.1
				c0-0.1,0-0.1-0.1-0.2c-0.1-0.2-0.3-0.5-0.4-0.6c-0.1-0.1-0.5-0.7-0.1-0.1c-0.1-0.1-0.1-0.2-0.2-0.2c0,0,0,0,0,0
				c-0.1-0.2-0.3-0.4-0.4-0.6c-0.4-0.6-1.1-1-1.7-1.3c-0.1,0-0.1-0.1-0.2-0.1c0.1-0.3,0.3-0.7,0.4-1c0.2-0.4,0.1-0.9-0.1-1.4
				c-0.2-0.5-0.9-1-1.5-1c-0.7,0-1.4,0.1-2.1,0c-0.2-0.1-0.4-0.1-0.6-0.2c0,0-0.1,0-0.1,0c0-0.1,0.1-0.2,0.2-0.4
				c0.1-0.2,0.3-0.5,0.4-0.7c0.9-1.4,0-3.6-1.7-3.6c-0.7,0-1.4,0.1-2,0.1c-0.1,0-0.2,0-0.3,0c-0.1,0-0.3-0.1-0.4-0.1
				c0.3-0.8,0.6-1.6,0.9-2.4c0.2-0.7,0.2-1.4-0.1-2.1c-0.4-0.9-1.3-1.5-2.3-1.5c-0.7,0-1.4,0.1-2.1,0.2c0.1,0,0.2,0,0.3,0
				c-0.1,0-0.3,0-0.4,0c0.2-0.3,0.5-0.6,0.6-1c0.3-0.5,0.5-1,0.5-1.5c0-0.6-0.1-1.1-0.3-1.6c-0.5-0.9-1.5-1.7-2.6-1.7
				c-1.5,0-2.9,0.5-4.1,1.5c0,0,0.1-0.1,0.1-0.1c0.7-0.9,1.4-1.9,1.8-3c0.4-1.2,0.2-2.4-0.7-3.4c-0.8-0.9-2-1.3-3.2-1.1
				c-1.1,0.2-2.1,0.7-2.9,1.4c0.4-0.7,0.7-1.4,0.8-2.2c0.2-0.9,0.2-1.8-0.5-2.6c-0.3-0.3-0.7-0.6-1.1-0.7c-0.7-0.3-1.3-0.1-2,0.1
				c-0.1,0-0.2,0.1-0.3,0.2c-0.3,0.1-0.6,0.3-0.8,0.6c-1,0.6-1.9,1.5-2.7,2.5c-0.8,0.9-1.4,1.9-1.9,2.9c-0.3,0.2-0.6,0.4-1,0.5
				c0.2-0.4,0.3-0.9,0.4-1.3c0,0.1,0,0.1,0,0.2c0.1-0.5,0.2-1,0.3-1.5c0.1-1.7-1.5-3.4-3.3-2.9c-1.8,0.4-3.4,1.6-4.5,3.2
				c-0.7,0.9-0.9,2-1.1,3.1c0,0.3-0.1,0.5-0.1,0.8c-0.1,0.1-0.2,0.1-0.3,0.2c-0.9,0.6-1.8,1.1-2.8,1.5c-0.3,0.1-0.6,0.2-0.9,0.2
				c0-0.1,0-0.2,0-0.2l0,0.1c0-0.1,0-0.2,0-0.3c0.2-0.6,0.4-1.2,0.6-1.8c0.1-0.2,0.3-0.5,0.4-0.7c0-0.1,0.1-0.2,0.1-0.2
				c0.2-0.5,0.2-1,0.1-1.6c-0.2-0.8-0.6-1.4-1.3-1.9c-0.7-0.5-1.5-0.6-2.3-0.5c-0.6,0.1-1.1,0.4-1.5,0.8c-1,1.1-1.8,2.2-2.5,3.5
				c-0.3,0.3-0.5,0.7-0.8,1c-1.3,1.5-2.8,2.8-4.4,3.9c0.1-0.3,0.1-0.4,0-0.1c0-0.1,0.1-0.1,0.1-0.2c0.1-0.3,0.2-0.5,0.3-0.8
				c0.2-0.6,0.2-1.2,0.2-1.8c-0.2-1.4-1.8-2.1-3.1-1.6c-0.2,0.1-0.4,0.2-0.6,0.4c0.3-0.2,0.1-0.1,0,0c-0.2,0.1-0.3,0.2-0.5,0.3
				c-0.4,0.3-0.8,0.7-1.1,1.1c-0.5,0.6-0.9,1.3-1.2,2c-0.6,0.6-1.2,1.2-1.7,1.9c-0.6,0.9-1.1,2.1-0.8,3.2c0.3,0.8,0.7,1.4,1.5,1.8
				c-0.1,0.1-0.1,0.2-0.2,0.3c0,0-0.1,0.1-0.1,0.1c0,0-0.1,0.1-0.1,0.1c0,0,0,0,0,0c0,0-0.1,0.1-0.1,0.1c-0.2,0.1-0.3,0.2-0.5,0.3
				l0,0c-0.1-0.2-0.2-0.3-0.4-0.5c-0.2-0.2-0.7-0.3-0.9,0.1c-0.3,0.5-0.5,1-0.3,1.6c0.1,0.3,0.4,0.5,0.7,0.6c0,0.4-0.1,0.7-0.1,1
				c-0.2,0.9-0.6,2.1-0.9,3c0,0.1-0.1,0.2-0.1,0.3c0,0,0,0,0,0.1c-0.1,0.1-0.1,0.2-0.1,0.2c-0.1,0.2-0.2,0.4-0.4,0.6
				c-0.1,0-0.2,0-0.3,0c-0.9-0.1-1.5,0.6-1.6,1.4c-0.1,0.4-0.1,0.8-0.2,1.2c0,0,0,0,0,0.1c0,0.1,0,0.2-0.1,0.3
				c-0.1,0.2-0.1,0.5-0.2,0.7c-0.1,0.2-0.1,0.4-0.2,0.6c0,0,0,0,0,0.1c-0.2,0.1-0.3,0.3-0.5,0.5c-0.1,0.1-0.2,0.2-0.3,0.3
				C45,33.1,45,33.5,45,33.9c0,0.3,0.1,0.7,0.3,0.9c0,0,0.1,0.1,0.1,0.1c0.2,0.2,0.4,0.3,0.6,0.4c0,0.1,0,0.1-0.1,0.2
				c0,0.1-0.1,0.2-0.1,0.3c0,0,0,0,0,0.1c-0.3-0.1-0.6,0-0.7,0.3c-0.1,0.3-0.3,0.5-0.4,0.7c-0.2,0.4-0.1,0.7,0,1.1c0,0,0,0.1,0,0.1
				c-0.3,0.6-0.8,1.2-1.3,1.5c-0.1,0.1-0.3,0.2-0.4,0.2c-0.1,0-0.2,0.1-0.3,0.1c0,0-0.2,0.1-0.2,0.1c-0.2,0-0.3,0.1-0.5,0.1
				c-0.1,0-0.2,0-0.2,0c0,0,0,0-0.1,0c0,0,0,0,0,0c-0.2,0-0.4,0-0.6,0c0,0-0.1,0-0.1,0c0,0-0.1,0-0.2,0c0,0-0.1,0-0.1,0
				c0,0-0.1,0-0.1,0c0,0,0,0,0,0c0,0,0,0,0,0c0,0-0.1-0.1-0.1-0.1c0,0-0.1-0.1-0.1-0.1c0,0,0,0-0.1-0.1c-0.1-0.1-0.1-0.2-0.1-0.4
				c-0.1-0.4,0-0.9,0.1-1.3c0-0.1-0.1-0.2-0.2-0.1c-0.5,0.7-0.9,1.6-0.6,2.5c0,0.1,0.1,0.2,0.2,0.3c-0.1,0-0.2,0.1-0.3,0.2
				c-0.2,0.4-0.4,0.7-0.7,1c-0.3,0.4-0.4,0.5-0.8,0.9c-0.2,0.1-0.3,0.3-0.5,0.4c0,0-0.1,0-0.1,0.1c-0.1,0-0.1,0.1-0.2,0.1
				c-0.1,0-0.1,0.1-0.2,0.1c0,0,0,0,0,0c0,0-0.1,0-0.1,0c-0.1,0-0.1,0-0.2,0c0,0,0,0,0,0c0,0,0,0-0.1,0c0,0-0.1,0-0.1,0
				c0,0,0,0-0.1,0c-0.1,0-0.1-0.1-0.2-0.1c0,0,0,0,0,0c-0.1-0.1-0.1-0.1-0.2-0.2l0,0c-0.1-0.2-0.3-0.4-0.4-0.6c0,0,0,0,0,0
				c0,0-0.1-0.2-0.2-0.2c-0.1-0.1-0.1-0.2-0.2-0.4c0.5-0.7-0.1-1.9-1-1.9c-1.9,0-2,2.1-1.6,3.5c0.2,0.7,0.5,1.5,1.1,2
				c0.7,0.7,1.4,1,2.4,1.2c0.8,0.1,1.6-0.3,2.2-0.7c0.5-0.3,0.9-0.8,1.2-1.3c0.6-1,1-2.1,1.2-3.3c0.3,0.1,0.7,0.2,1,0.2
				c1.8-0.2,3.4-1.6,3.9-3.3c0.2,0,0.4,0,0.7-0.1c0.2,0,0.3,0,0.5-0.1c0.3-0.1,0.4-0.3,0.6-0.5c0.2-0.2,0.3-0.4,0.4-0.6
				c0.3-0.6,0.5-1.2,0.6-1.9c0-0.2,0.1-0.4,0.1-0.6c0.7-0.8,1-1.8,1.2-2.8c0.1-0.4,0.1-0.7,0.1-1.1c0.2-0.1,0.3-0.3,0.5-0.5
				c0.1-0.1,0.1-0.2,0.2-0.3c0,0,0-0.1,0.1-0.1c0.1-0.1,0.2-0.3,0.2-0.4c0.1-0.2,0.2-0.4,0.3-0.6c0.2-0.4,0.3-0.7,0.4-1.1
				c0.1-0.3,0.1-0.7,0.2-1c0-0.3,0.1-0.6,0.1-0.9c0.1-0.7,0.2-1.4,0.2-2.1c0-0.4,0-0.9-0.1-1.3c0.2,0,0.3,0,0.5-0.1
				c0.5-0.1,1.1-0.2,1.5-0.5c0.4-0.2,0.7-0.6,1-1c0.3-0.3,0.5-0.7,0.7-1.1c0,0,0-0.1,0.1-0.1c0.1,0,0.1,0.1,0.2,0.1
				c0.4,0.2,0.8,0.3,1.2,0.4c3.1,0.2,5.9-1.6,8.1-3.6c0.5,0.5,1.1,0.9,1.8,1.3c-0.1,0-0.1-0.1-0.2-0.1c0.4,0.2,0.8,0.4,1.2,0.6
				c0.4,0.1,0.9,0.2,1.3,0.3c0.5,0.1,1.1,0,1.6-0.1c0.7-0.1,1.5-0.4,2.1-0.6c1.3-0.5,2.5-1.3,3.6-2.1c0.4-0.3,0.9-0.7,1.3-1
				c0.4,0.2,0.7,0.3,1.1,0.4c0,0,0,0,0,0c0.5,0.1,1,0.2,1.5,0.3c0.5,0,1.1,0,1.6-0.1c0.3,0,0.6-0.1,0.8-0.1c0.4,1,1.1,1.9,2.1,2.5
				c0,0,0,0,0.1,0c0.2,0.1,0.6,0.3,0.9,0.4c0.1,0,0.2,0.1,0.3,0.1c0.5,0.1,1,0.2,1.5,0.3c0.3,0,0.6,0,1,0c0.5,1.1,1.3,2,2.4,2.6
				c0.6,0.3,1.1,0.6,1.7,0.7c1,0.2,1.7,0.2,2.7,0.2c1,1.2,2.6,1.9,4.1,1.8c0.6,0,1.2-0.1,1.9-0.2c0,0.3,0,0.7,0.1,1
				c0.2,0.7,0.5,1.3,1,1.9c0.6,0.7,1.4,1,2.3,1.2c0.4,0.1,0.8,0.1,1.2,0c0,0.3,0.1,0.5,0.1,0.8c0.3,0.9,0.7,1.6,1.5,2.1
				c0.6,0.4,1.3,0.6,2,0.7c0.3,0.1,0.7,0.1,1,0.1c0,0.1-0.1,0.3-0.1,0.4c-0.1,0.8,0.4,1.5,1,2c0.4,0.3,0.8,0.5,1.2,0.8
				c0.2,0.1,0.3,0.2,0.5,0.3c0.1,0,0.2,0.1,0.2,0.2c0,0,0,0,0,0c0,0,0,0,0,0.1c0.2,0.4,0.4,0.7,0.6,1c0,0,0,0.1,0,0.1
				c0.2,0.9,0.4,1.6,1.1,2.1c0.3,0.2,0.6,0.4,1,0.4c0.3,0.3,0.8,0.6,1.3,0.6c1,0.1,1.6-0.5,1.9-1.3c0-0.1,0.1-0.2,0.1-0.3
				c0-0.1,0.1-0.2,0.1-0.3C119.9,36.8,120,36.2,119.6,35.6z M57.5,11.2c0,0.1,0,0.1,0,0.2c0,0,0,0.1,0,0.1c0,0.2-0.1,0.3-0.1,0.4
				c0-0.1-0.1-0.2-0.1-0.3c0,0,0-0.1,0-0.1c0,0,0-0.1,0.1-0.1C57.4,11.3,57.5,11.2,57.5,11.2z"/>
			<path fill-rule="evenodd" clip-rule="evenodd" fill="#F8991D" d="M66.9,5.1C66.9,5.1,66.9,5.1,66.9,5.1C66.9,5,66.9,5,66.9,5.1
				C66.9,5,66.9,5,66.9,5.1z"/>
			<path fill-rule="evenodd" clip-rule="evenodd" fill="#F8991D" d="M66.4,5.6c0.1-0.2,0.3-0.3,0.4-0.5C66.7,5.2,66.6,5.3,66.4,5.6
				C66.5,5.5,66.4,5.5,66.4,5.6z"/>
		</g>
		<g>
			<path fill-rule="evenodd" clip-rule="evenodd" fill="#C7B29E" d="M183.5,23.6c0.1-0.2,0.3-0.5,0.5-0.7c0.7-0.9,1-1.9,1.1-3
				c0.1-1.2-0.9-2.4-2.1-2.4c-0.6,0-1.2,0-1.8,0.2c-0.3-1.1-1.3-1.9-2.5-1.7c0.1-0.2,0.3-0.3,0.4-0.5c0.1-0.1,0.1-0.1,0.2-0.2
				c0,0,0.1-0.1,0.1-0.2c0,0,0,0,0,0c0,0.1-0.1,0.2-0.1,0.2c0-0.1,0.1-0.2,0.1-0.2c0.1-0.3,0.3-0.5,0.4-0.8c0.3-0.6,0-1.4-0.4-1.8
				c-0.6-0.7-1.4-0.8-2.2-0.4c-0.9,0.4-1.8,0.7-2.7,1.1c-0.9,0.4-1.7,0.9-2.6,1.4c-1.8,1-3.4,2.2-5.1,3.4c-0.8,0.6-1.6,1.2-2.4,1.7
				c-0.8,0.6-1.5,1.1-2.3,1.6c-1.6,1-3.3,2-5.1,2.7c-0.1,0-0.1,0.1-0.2,0.1c0.6-0.8,1.3-1.5,2-2.2c1.4-1.3,2.9-2.4,4.5-3.6
				c1.5-1.1,2.9-2.2,4.4-3.3c1.7-1.2,3.3-2.4,4.8-3.9c0.8-0.8,1.5-1.6,2.1-2.6c0.4-0.7,0.4-1.6-0.1-2.2c-0.6-0.7-1.4-0.7-2.2-0.4
				c-2,0.7-3.8,2-5.4,3.3c-1.3,1.1-2.6,2.3-3.8,3.4c-0.1-0.1-0.3-0.2-0.5-0.2c-1.3,0.1-2.5,0.4-3.7,1c-0.1,0.1-0.2,0.1-0.4,0.2
				c-0.1,0.1-0.6,0.3-0.1,0.1c-0.5,0.2-0.9,0.5-1.3,0.8c-0.5,0.5-1,0.9-1.5,1.4c-1.8,1.9-3.3,4.1-4.7,6.4c-0.5,0.7-0.4,1.7,0.1,2.4
				c0.7,0.9,1.9,0.8,2.8,0.2c0.3-0.2,0.6-0.5,0.9-0.7c-0.1,0.3-0.2,0.6-0.3,1c-0.2,0.6,0.3,1.3,1,1.1c3.1-0.6,6-2,8.7-3.6
				c-0.4,0.4-0.7,0.9-1.1,1.4c-0.9,1.3,0.3,3.2,1.9,2.8c0.8-0.2,1.5-0.4,2.2-0.7c0.1-0.1,0.3-0.1,0.4-0.2c-0.7,0.3,0.2-0.1,0.4-0.2
				c0.3-0.1,0.6-0.3,0.9-0.5c0.5-0.3,1-0.5,1.5-0.8c0.3,1.1,1.3,2,2.6,1.7c0.1,0,0.2,0,0.3-0.1c0,0,0.1,0,0.1,0
				c0.7-0.2,0.7-0.3,0.2-0.1c0.2,0,0.5-0.1,0.7-0.2c0.6-0.2,1.2-0.4,1.7-0.6c0.9-0.4,1.7-0.9,2.5-1.4c0.4-0.2,0.8-0.5,1.2-0.7
				c0,0.2,0,0.4,0,0.6c0,0.1,0,0.1,0,0.2c0,0,0,0.1,0,0.1c0.2,0.5,0.2,0.6,0.1,0.2c0.1,0.9,1.2,1.5,2,1.3c0.8-0.2,1.2-0.7,1.3-1.4
				c0-0.1,0-0.2,0.1-0.3C183.4,23.9,183.5,23.7,183.5,23.6z"/>
			<path fill-rule="evenodd" clip-rule="evenodd" fill="#C7B29E" d="M179.2,15.2C179.2,15.2,179.2,15.2,179.2,15.2
				C179.2,15.2,179.2,15.2,179.2,15.2z"/>
		</g>
		<path fill-rule="evenodd" clip-rule="evenodd" fill="#F6C785" d="M190.6,40.3c-0.5-0.8-1.1-1.5-2-2c-0.4-0.2-0.8-0.5-1.3-0.6
			c-1.1-0.3-1.2-0.2-2.4-0.2c-0.5,0-1.1,0.3-1.5,0.6c-0.8,0.5-1.4,1-1.9,1.8c-0.8,1.2-1.2,2.9-0.8,4.3c0,0.6,0.2,1,0.4,1.6
			c0.3,0.8,0.9,1.3,1.5,1.9c0.7,0.6,1.5,0.8,2.4,0.9c0.9,0.2,1.9-0.1,2.7-0.5c0.5-0.3,1.1-0.6,1.5-1.1c0.8-0.8,1.1-1.4,1.6-2.3
			C191.4,43.5,191.4,41.5,190.6,40.3z"/>
		<path fill-rule="evenodd" clip-rule="evenodd" fill="#F6C785" d="M151,46.6c0-1.2-0.4-2.6-1.3-3.5c-0.8-0.7-1-0.8-1.9-1.3
			c-0.5-0.2-1-0.3-1.5-0.4c-0.7-0.1-1.4,0-2.1,0.1c-0.2,0-0.4,0-0.6,0.1c-1.1,0.4-1.2,0.4-2.2,1.1c-0.8,0.6-1.5,1.8-1.8,2.7
			c-0.4,1.1-0.3,2.3,0.2,3.4c0.2,0.3,0.4,0.6,0.6,0.9c0.3,0.3,0.5,0.5,0.8,0.7c0.1,0.1,0.2,0.1,0.3,0.2c0.8,0.5,1.5,0.7,2.4,0.8
			c0.1,0,0.2,0,0.3,0c0.4,0.2,0.9,0.3,1.3,0.3c1.8,0.1,3.3-1,4.3-2.4c-0.1,0.1-0.2,0.3-0.4,0.4c0.5-0.6,0.7-0.9,1.1-1.8
			C150.9,47.7,151,47.1,151,46.6z"/>
		<path fill-rule="evenodd" clip-rule="evenodd" fill="#F6C785" d="M103.8,33.9c-0.2-1.1-1-2.2-1.9-2.8c-0.2-0.1-0.4-0.2-0.5-0.3
			c-0.4-0.2-0.8-0.5-1.3-0.6c-1.3-0.3-1-0.3-2.3-0.2c-0.4,0-0.8,0.2-1.2,0.4c-0.6,0.2-1.5,1.1-1.8,1.6c-0.4,0.6-0.8,1.5-0.8,2.2
			c0,0.5,0,1,0.1,1.5c0.1,1,0.7,1.8,1.5,2.4c0,0,0,0,0,0.1c0.5,0.7,1.2,0.9,1.9,1.3c0.5,0.3,1.7,0.3,2.2,0.1
			c0.3-0.1,0.8-0.2,1.2-0.4c0.5-0.2,0.9-0.5,1.3-0.9c0.3-0.3,0.7-0.7,0.9-1.1c0-0.1,0.4-0.7,0.5-1.1
			C103.9,35.2,103.9,34.9,103.8,33.9z"/>
		<path fill-rule="evenodd" clip-rule="evenodd" fill="#F6C785" d="M63.7,40.1c-0.1-0.5-0.2-0.9-0.5-1.3c-0.1-0.3-0.2-0.7-0.4-1
			c-0.6-1-0.9-1.2-1.7-2c-0.6-0.5-1.4-0.8-2.2-1c-1.8-0.7-4,0.1-5.1,1.7c-0.4,0.6-0.7,1.2-0.9,1.8c-0.3,1.3-0.3,1.9-0.2,3.2
			c0,0.1,0,0.1,0,0.2c0,1.1,0.5,2.2,1.3,2.8c0.4,0.3,0.7,0.7,1.2,0.9c0.4,0.2,0.7,0.4,1.1,0.6c0.3,0.1,0.6,0.2,0.9,0.2
			c1.5,0.5,3.4,0,4.6-1.1c0.4-0.4,0.8-0.8,1.1-1.3c0.3-0.4,0.5-0.8,0.6-1.2C63.9,41.8,63.9,41.1,63.7,40.1z M57.5,38.5
			c0,0-0.1-0.1-0.1-0.1c-0.1-0.1,0,0,0.3,0.3C57.7,38.7,57.6,38.6,57.5,38.5C57.5,38.5,57.6,38.5,57.5,38.5
			C57.6,38.5,57.5,38.5,57.5,38.5z"/>
		<path fill-rule="evenodd" clip-rule="evenodd" fill="#E1E43C" d="M86,80.8c-0.3-0.6-0.5-1.2-0.7-1.8c-0.5-1.4-0.8-2.9-1-4.3
			c-0.1-0.8-0.6-1.4-1.2-1.9c-0.5-0.6-1.1-1-1.8-1.3c-0.5-0.2-1-0.2-1.4-0.2c0-0.1-0.1-0.3-0.1-0.4c-0.1-0.5-0.5-0.8-1-0.8
			c-0.6,0-1,0.4-1.1,1c0,0,0,0,0,0.1c0,0.1,0,0.2-0.1,0.3c0,0.2-0.1,0.4-0.1,0.5c-0.1,0.2-0.1,0.4-0.2,0.6c-0.2,0.2-0.4,0.4-0.5,0.6
			c-0.1,0.1-0.2,0.3-0.3,0.4c-0.4,0.4-0.8,0.8-1.2,1.2c-0.8,0.8-1.4,1.6-2.1,2.5c-0.6,0.8-1.1,1.7-1.5,2.7c-0.1,0.3-0.2,0.6-0.3,0.8
			c-0.1,0.5-0.2,1-0.3,1.5c-0.1,0.8,0.2,1.6,0.5,2.3c0.8,1.6,2.6,2.5,4.3,2.1c0.7-0.1,1.3-0.4,1.8-0.9c0.1,0,0.1-0.1,0.1-0.1
			c0.1,0,0.2,0.1,0.3,0.1c0.7,0.3,1.5,0.3,2.3,0.1c0.8,0.6,1.8,0.8,2.9,0.6C85.8,85.8,87,83,86,80.8z"/>
		<path fill-rule="evenodd" clip-rule="evenodd" fill="#00AEEF" d="M163.1,83.7L163.1,83.7c-0.3-1.8-0.6-3.5-1.3-5.1
			c-0.4-1-1.3-1.6-2.3-1.8c-0.2-1-1.1-1.7-2.1-1.8c-1.3-0.1-2.4,0.9-2.5,2.2c0,0.2,0,0.3-0.1,0.5c-0.2,0.8-0.5,1.6-0.8,2.4
			c-0.4,1.3-0.6,2.7-0.3,4.1c0.3,1.1,1,2,2,2.3c0.3,0.1,0.6,0.2,0.8,0.2c0.3,0.3,0.6,0.6,0.9,0.8c1.1,0.7,2.5,0.8,3.6,0.2
			c1.1-0.6,1.9-1.7,2-3C163.2,84.3,163.2,84,163.1,83.7z"/>
		<g>
			<path fill-rule="evenodd" clip-rule="evenodd" d="M82.6,30c1,0.1,1.5,1.1,0.9,2c-0.7,0.1-0.5-0.6-1.2-0.4
				C82.4,31.1,82.3,30.3,82.6,30z"/>
			<path fill-rule="evenodd" clip-rule="evenodd" d="M184.8,49c-1.1,15.4-27.6,21.7-36.7,9.1c-1.2-1.6-1.7-4.9-1.5-7.7
				c-1.8-0.5-2.6-0.5-3.3-1.3c-4.7-5.2,6.7-8,6.4-1.9c-0.1,1.7-1.8,2-2.6,3.3c-0.8,9.4,8.2,13.5,17.7,13.5c9.9,0,16.9-7,18.9-14.8
				c-1.1-0.7-2-0.8-2.8-1.5c-8.5-7.5,11.1-16.2,11.2-5.4C192.1,47,189,48.5,184.8,49z M184.4,38.3c0.3,0,0.7,0,0.7,0.2
				c-4.4-0.8-5.4,8.5-0.9,8.6c-0.1-0.7,0.4-0.8,0.3-1.4c-1-0.5-0.9-2-1.2-3c1.3-0.8,2.4-2.7,4.8-1.7c1.9,3.2-1.3,5.8-3,7.2
				C192.9,49.9,193.5,34.6,184.4,38.3z M183.9,48c-4.3-0.5-3.6-7.3-1.7-9.3C177.8,40.2,179.5,49,183.9,48z M184.6,42.4
				c1,0.4,0.8,1.8,0.9,2.9c1.8,0.6,2.8-1.7,1.8-2.6c0-0.4,0.8,0.2,0.6-0.5C187.5,40.7,185.1,41.4,184.6,42.4z M184.5,44.8
				c0.1-0.6,0.1-1.3-0.3-1.5C183.9,43.7,184.1,44.6,184.5,44.8z M185.4,47c0.2-0.5,0.8-0.3,1-0.8c-0.4,0-0.7,0-1.1-0.1
				C185.4,46.4,185,47,185.4,47z M143.7,44.6c0.3,0.1,0.8-0.5,0.9,0.1c-0.7,0-1,0.3-1.5,0.6c-0.2,2.5,0.9,3.9,3.7,3.9
				c0.5-0.6,0.7-1.7,1.6-1.9c-0.1,0.5-1,1.1-0.6,1.6c1.4-0.3,1.2-3.6-0.1-3.3c0.9,5.7-6.4,0.1-1-1.3
				C145.6,43.9,144.3,43.8,143.7,44.6z M145.2,47c0.3,0.1,0.8,0.9,1.2,0.4c-1.3-0.4,0.3-2.4-0.2-2.4C145.6,45.5,145.1,45.9,145.2,47
				z M147.1,47.2c0.3-0.6,0.4-1.4-0.4-1.5C146.3,46.1,146.4,47.2,147.1,47.2z"/>
			<path fill-rule="evenodd" clip-rule="evenodd" d="M159.8,36.1c0.6,0,0.8,0.3,1.2,0.4c-0.2,0.7-0.2,0.9-0.1,1.6
				c-0.7,0.1-1-0.2-1.4-0.5C159.5,37,159.6,36.5,159.8,36.1z"/>
			<path fill-rule="evenodd" clip-rule="evenodd" d="M70.2,32.1c0,0.8-0.7,0.9-1.3,1c-0.1-0.2-0.1-0.3-0.3-0.4
				C68.5,31.9,69.6,31.6,70.2,32.1z"/>
			<path fill-rule="evenodd" clip-rule="evenodd" d="M171.2,40.8c0,0.8-0.2,1.2-0.5,1.6C168.2,42.3,169.6,39,171.2,40.8z"/>
			<path fill-rule="evenodd" clip-rule="evenodd" d="M107.2,66.9c0.6,1.2-0.3,3.9-1.4,4.4C106.4,69.9,106.6,68.2,107.2,66.9z"/>
			<path fill-rule="evenodd" clip-rule="evenodd" d="M110,68.7c0.2,0,0.4,0,0.5,0c-0.6,2.1-2.2,3-4,3.7
				C107.4,70.9,109.4,70.6,110,68.7z"/>
			<path fill-rule="evenodd" clip-rule="evenodd" d="M123.9,70.7c1.5,0.5,2.5,2,2.5,3.2c-0.9-0.8-1.9,1-3.3,0.1
				c0-1.1,1.2-0.8,2.2-0.8C125.1,72.2,123.9,72,123.9,70.7z"/>
			<path fill-rule="evenodd" clip-rule="evenodd" d="M153.5,73.9c-6.1,2-13.6,4.9-21.4,3.8c-3.3-0.5-6.1-2.1-9.5-1.4
				c0.5-1.7,3.5,0.4,3.5-1.6C134.7,79.5,146.3,74.8,153.5,73.9z"/>
			<path fill-rule="evenodd" clip-rule="evenodd" d="M106.7,73.9c1.5,0.3,2.9,0.6,3.5,1.7C109.1,75.6,107.5,74.7,106.7,73.9z"/>
			<path fill-rule="evenodd" clip-rule="evenodd" d="M159.9,87.9c-0.6,4.7-1.1,12.4,0.1,17c1.1-0.3,2.8-0.7,3,0.7
				c-1.1-0.2-2.4,0.1-3.6,0.3C157.9,101.3,158.1,93,159.9,87.9z"/>
			<path fill-rule="evenodd" clip-rule="evenodd" d="M155.4,107.1c-0.2,0-0.4,0-0.5,0c-0.8-0.4-3.1-0.5-3-1.3
				c0.6-0.9,2.1,0.2,2.9,0.2c0.8-5.4-1.1-13.6,1.8-18.1C155.1,94.4,156.7,101.3,155.4,107.1z"/>
			<path fill-rule="evenodd" clip-rule="evenodd" d="M32.2,43.6c0.4-3.7,6.8-7.6,7.7-2.2c6.8-2.6,6.7-12.9,10.6-18.8
				c-4-7,1.9-18.6,9.7-17.8C65,5.4,69.2,7.1,74,6.5c0.9-3.4,4.7-6.6,8.4-4.3c1.4-1.3,2.8-2.6,5.7-2.1c3.3,3.3-2.1,8.3-2.3,10.5
				c3-2.3,4.1-11.4,9-10.4c4.5,0.9-1.5,10.1-3.1,11.3c1.3,0,2.1,0.5,3.4,0.6c1.3-1.8,2.3-3.9,4.6-4.6c2.2,1.6-1,4.9-0.9,5.7
				c1.8-1.2,2.6-5.7,5.4-5.1c2.8,0.6,0.3,5.7-1,7.2c4.9,2.9,7.6,7.8,9,13.8c0.5,0.5,1.3-1.3,2.2-0.4c-2.1,1.6-1.6,4.2-1.2,7.3
				c0.7-0.2,1.8-2.7,3.5-1.7c-0.4,2.5-2.1,3.4-3.7,4.4c0,1.2-0.4,2.7-0.1,3.6c2.7,1.2,2.7-2.4,4.4-3.1c0.5,0.8-1.5,2.5,0.4,2.7
				c0.5-2.2,3.9-7,5.2-2.9c2.1-1.6,3.4-4.1,5.9-5.2c0,0.8-0.2,1.4-0.5,2c-3.8,0.3-6.2,6.9-9.7,9.5c-0.6-0.6-0.8-1.6-0.9-2.6
				c-0.7,0-1.2-0.2-1.4-0.6c-0.9,0.7-2.4,1.9-3.8,0.8c-2.5,16.2-13.4,22.7-28,25c4.4,3.5,15,4.4,20.8,4.5
				c-5.8,2.3-17.2-1.6-21.2-3.6c1.1,6,5,12.6,3.1,18.3c-1.7-0.3-3.1-1.8-4.9-0.3c-0.3-0.3-0.2-1.5-0.8-1c-0.4,4.2-1,9.9-1,14.6
				c0.3,0.2,2.3-0.2,2.1,0.9c-1.2-0.2-1.8,0.3-2.9,0.2c-0.2-4.9,0.7-11.2,1-15.6c-1.8,0.2-2.8,0.6-3.2,0c-0.9,5-1.6,11.5-0.7,15.5
				c-1.2-0.4-2.1-1-2.6-2c0.5-0.6,1.5,1,1.6,0.1c-1.2-4.3,0.5-9.5,0.9-14.2c-1.2,0.5-1.6-0.2-3.8,0.3c-0.1-0.8,0.9-1.1,0.5-1.6
				c-0.6,0.6-2,1.1-3.1,0.5c4-3.3,5.7-9.8,7.6-16.1c0,6.3-3,10.1-4.2,14.3c4.1-1,9.6,1.7,13,0.1c-1.1-4-2-8.2-3.2-12.1
				c-0.8,2.2-6.5,0.9-5.1-1.8c0.9,3.5,4.8,2.3,5.1-0.9C76,67.1,72.4,71,66.2,72.1c2.6,1.6,7.1,2.5,8.4,4.7c-1.5,0-3.2,0.9-4.5,0.4
				c0.1-1.2,1.9-0.5,2.4-1.3c-2.8-1.5-6.4-2.2-8-4.7c4.8-0.3,8.4-2,12.1-3.5c-17.4-2.3-27.2-11.3-29.1-27.2c-0.4-0.3-0.9,1-2,0.6
				c0.3,2.1-0.6,4.1-2.3,4.5c-1.8-0.5-1.4-3.2-1.1-4.6c-3.2,0.6-2.2,6.1-5.7,6.5c-0.4-0.2,0.2-1.3-0.3-1.5c-1.4,1.4-4,0.1-4-1.7
				C32.2,44.1,32.2,43.9,32.2,43.6z M87.5,10.7c0.8,0.4,2.4,0.2,3.2,0.6c2-2.5,6.2-6,4.5-10.4C90.5,1.8,89,6.3,87.5,10.7z M82.8,2.6
				c2.3,1.6,1.1,6.7-1.2,7.5c1.2-0.1,1.8,0.4,2.9,0.4c1.8-2.4,4.4-5,4.1-9.3C86.3-0.1,84,1.5,82.8,2.6z M74.4,7.1
				c-0.3,0.9-0.6,1.8-0.6,3c1.1,0.3,1-0.4,1.8-0.1C75.7,8.6,75.4,7.6,74.4,7.1z M76.2,10.1c1.6-3,3.6-5.6,5.9-7.7
				c-3.9-1.6-6.6,1.1-7.5,4.2C75.4,7.5,75.7,8.9,76.2,10.1z M77.1,10c5.5,2,8.4-4.2,5.4-7.2C80.4,4.9,78.4,7.1,77.1,10z M51,21.8
				c1-2.4,2.7-4.1,4.2-6c0.1-4.9,3.4-7.7,6.4-9.9C53.4,4.2,47.7,14.6,51,21.8z M63.1,6.2c0.3,1,0.4,2.1,0.7,3.1
				c0.6-1.3,2.1-1.6,3.1-2.5C65.8,6.3,64.4,5.9,63.1,6.2z M95.9,12.3c0.7,0.2,1.2,0.4,2,0.5c0.8-1.2,2.5-2.3,1.9-4.4
				C97.8,9,97,10.8,95.9,12.3z M72,7.3c1.4,1.7,1.2,2.8,1.8-0.4C73,6.8,72.3,6.8,72,7.3z M99.9,13.7c1,0.2,1.6,0.9,2.6,1.1
				c1-1.3,2.8-3.5,1.8-5.8C101.9,9.3,101.2,11.8,99.9,13.7z M68.1,7c0.4,1.2,0.5,2.5-0.1,3.8c1.2-1,1.8-2.8,3.1-3.6
				C70.2,6.8,69,6.6,68.1,7z M55.8,15.1c2.2-1.7,9.3-3.5,6.4-8.6C59.1,8.3,56.6,10.7,55.8,15.1z M68.9,10.7c1.2-0.2,2.4-0.3,3.6-0.5
				C72.7,5.7,69.5,8.4,68.9,10.7z M62.9,11.4c0.3,0.2,0.6-0.5,0.7,0c-4.8,3.3,2.5,5.1,3,0.4c-0.8-0.2-1.9,0.6-2.2-0.1
				c0.7-0.5,1.8-0.5,2.8-0.7C69.4,5.2,63.6,8.7,62.9,11.4z M76.2,11.6c-0.2,1.3-0.8,2.5-0.4,3.8c3.7,1.1,6.7-2.2,7.5-3.8
				C80.6,11.1,77.8,11.4,76.2,11.6z M75.9,16.2c2.5,4.3,8.7,0.8,10.9-1.4c-0.4-0.8-0.4-1.9-0.3-3.1C81.8,11.8,81.1,17.4,75.9,16.2z
				 M75.1,14.7c-0.3-1.1,0.4-2.2,0.4-3.6C72.6,10.5,74.3,14.2,75.1,14.7z M87.6,14.5c0.7-0.7,1.4-1.4,2.1-2.2
				c-0.6-0.3-1.6-0.3-2.5-0.3C87.2,12.9,87,14.1,87.6,14.5z M54.1,18c0.4-0.6,1-0.9,1.9-1c1.1,2.7-1.8,5.4-4.7,5.5
				c-0.9,1.7-1.8,3.3-2.2,5.6c0.7,0,1.9-1.8,3.3-1c-0.2,3.4-1.9,6.9-4.2,6.6c1.8,1.8,0.2,4,0,6.1c-0.6,5.7,3.1,12.8,6.5,16.7
				c16.5,18.6,58.9,11.6,57.3-17.8c-2.7-0.5-2.4-4.5-1.2-6.6c-3.8,1-6.9-1-5.8-5.3c-3.1,1.4-6.4-0.3-5.7-4.2c-1.7,0-2.1-1.1-2.4-2.3
				c-2.6,0.5-3.9-1.3-3.9-3.5c-1.8,2.6-4.6-1.1-6.1-1.1c-0.4,0-2.7,1.9-3.6,2.3c-6,2.8-9-1.1-10.4-6.8c-1.1,2.2-2.4,4.2-5.3,4.3
				c-0.8-1,0.3-3.2,0.1-4c-1,2.1-4.3,6.2-6.5,2.8C60.1,18.7,54.8,15.4,54.1,18z M87.7,15c0.4,2.2,4.3,1.9,5.7,0.9
				c0.1-1.2,0.7-2,1.1-2.8C91,11.6,89.6,13.4,87.7,15z M68.5,11.6c-0.3,1-1,2.2-0.6,3.4c2.2-0.3,3.6-1.7,4.4-3.7
				C70.9,11.3,69.7,11.4,68.5,11.6z M94.4,15.3c1-0.3,1.7-0.9,2.3-1.7c-0.7,0.1-0.8-0.3-1.4-0.3C94.9,14,94.5,14.4,94.4,15.3z
				 M96.8,19.4c0.2-2.1,1.1-3.5,1.8-5.1C95.6,13.4,91.2,19.7,96.8,19.4z M55.9,16c2.5,1.9,5.5-2.1,5.3-3.8
				C59.4,13.4,57.2,14.1,55.9,16z M97.8,18.9c1.5-0.8,3-1.8,3.8-3.4c-0.9-0.2-1.4-0.7-2.3-0.9C98.6,16,98,17.2,97.8,18.9z
				 M102.3,16.2c-1.1,1.9-3.2,2.7-4.6,4.2c0.3,0.8,0.6,1.7,1.9,1.6c0.8-1.5,1.3-3.3,3.3-3.4c-0.4,3.1-5,5.2-1.4,7.8
				c1.8,0.4,2.8-0.3,4-0.6c0.4-1.9,1.6-2.9,3-3.8C106.8,19.7,105,17.5,102.3,16.2z M51.9,21.8c1.8-0.7,3.5-1.5,3.9-3.9
				C54.1,18.1,52.8,20.2,51.9,21.8z M106.7,25c0.5-0.6,1.2-1.1,1.6-1.9C107.5,23.3,106.7,24.4,106.7,25z M111.4,30.9
				c-0.3-2.9-1.2-5.3-2.4-7.4C104.3,24.9,104.9,34.5,111.4,30.9z M48.8,33c1.8-0.8,2.5-2.8,2.9-5.2C49.6,28.1,47.7,30.9,48.8,33z
				 M112,37.8c0-2.1,0.1-4.3-0.5-5.8C110.9,33.7,109.6,37.2,112,37.8z M113.5,37.3c0.9-0.3,2.5-1.7,2-2.4
				C114.7,35.6,114,36.4,113.5,37.3z M46.3,35.5c0.3-0.5,0.9-0.7,1.3-1c-0.1-0.8,0.4-2,0-2.5C47.2,33.2,46.1,34.4,46.3,35.5z
				 M120.6,38.5c0.7,0.1,0.9,0.6,1.2,1c0-0.5,0.1-1,0.1-1.4C121.3,38,120.9,38.1,120.6,38.5z M119.6,40.3c0.6,0,1.4,0.2,1.5-0.4
				C120.8,39,119.5,39.1,119.6,40.3z M48.2,37.3c0.3-0.4,0.4-1.8,0-2C48.2,35.9,47.8,37,48.2,37.3z M47.2,35.6
				c-1.4,0.5-3,3.6-1.2,4.8C47.9,40.3,47.8,37.1,47.2,35.6z M118.8,41.8c0.9,0.1,1.4-0.3,1.9-0.8c-0.8,0.1-0.8,0-1.6-0.1
				C119.1,41.4,119,41.6,118.8,41.8z M118.7,42.7c-0.1,0.7,0,1.4,0.4,1.7c0.5-0.6,1.6-1.6,1.4-2.4C120.2,42.5,119.4,42.6,118.7,42.7
				z M43.7,39.9c0.4,0,0.7,0.1,0.9,0.2c0.1-0.6,0-1-0.3-1.3C44.2,39.4,43.8,39.5,43.7,39.9z M34.6,46c1.3,0.1,2.8-1.6,2.9-2.7
				c-6.4,1.3,0.3-6.1,1.3-0.6c0.8-0.7,0.3-2.3-0.2-2.9C34.6,37.6,30.9,45.7,34.6,46z M43.3,44.7c1.3-0.3,2-2.8,1.2-3.9
				C42.1,40.2,42.2,44.1,43.3,44.7z M35.2,42.6c0.4,0.6,1.9,0.5,2.7,0.4c0.2-0.8-0.2-1-0.4-1.5C36.2,41.3,35.3,41.5,35.2,42.6z
				 M37.3,46.5c0.6-0.7,1.7-2,1.5-3C38.2,44.3,37,45.5,37.3,46.5z M71.4,84c0.9,0.1,1.3-0.3,1.8-0.6c-0.9,0.2-0.8-0.5-1-0.8
				C72.1,83.3,71.5,83.3,71.4,84z M77.6,83.7c0.5,0.5,0.4,1.5,1.1,1.9c0.3-0.8,1.3-0.7,2.4-0.6c0-0.4,0-0.9,0.4-0.9
				c0,0.3-0.1,0.7,0.1,0.7c0.2-0.2,0.1-0.7,0.6-0.5c0.5,0,0.2,0.9,0.5,1.1c0.7,0.1,0.5-0.9,1.1-0.8c0.5,0.3,0.7,0.8,1.2,1.2
				c0.7-0.3,1.6-0.5,2.2,0.1C87.9,82.6,80.6,84.3,77.6,83.7z M74.1,84.7c0.8-0.1,1.2-0.6,1.9-0.8c0.4,0,0.2,0.5,0.5,0.6
				c0.2-0.4,0.6-0.5,0.6-1C75.5,83.2,74.1,83.2,74.1,84.7z"/>
			<path fill-rule="evenodd" clip-rule="evenodd" d="M168.7,7.8c-2.7,3.1-8.6,5.9-12.3,9.1c6.9,0.5,9.6-3.9,14.5-5.7
				c-0.9,2.2-4,3.5-6.1,5c4.6,1.9,6.9-2.9,10.5-2.7c-1,1.9-3.1,2.4-4.4,3.9c3.7,1.2,6.1,0.6,8.5-0.3c-0.2,1-1.3,0.9-1.7,1.7
				c2,0.7,3.8,1.4,5.7,0.6c0.5,0.5-0.2,0.7-0.3,1.2c10.2,3.9,19.4,13.3,14,27.5c6.7-0.9,4.9,5.7-1.3,3.9c-7.3,13.6-18,24.3-38.7,22
				c-0.7,1.7,0.1,3.6,1.3,4.2c1.6-0.7,1.5-3.2,3.5-3.4c0.8,0.1-0.2,0.4-0.2,0.7c2.2,1.5,6.4,1.2,8.9,2.6c-0.5,3.6-4,3.7-6.6,4.8
				c0.3,2,3.4,1.5,4.3,3c-2.1,0.8-4.1-1.2-5.3-2.3c0.2,1.3,0.3,2.7,0.1,4.3c-3.5-0.2-6.2-1.1-9.5-1.5c1.3-3.4,1.4-8.1,1.8-12.7
				c-10.6-3.2-19.2-9.3-19.3-21.7c0-5.4,2.5-10.2,2.5-15.2c0-2.7-3.3-3-4.5-0.8c-0.1,1.5,2.1,1.1,2.4,2.3c-7.5-0.2,0.9-8.2,2.1-2.4
				C142.8,19.8,158.3,16.7,168.7,7.8z M169,17c1.1,0,2.6-1.5,2.6-1.4C170.7,16,169.8,16.5,169,17z M154.9,18.3
				c0.7-0.2,2.2-0.7,3.1-0.2c-5.2,0-7.6,3.1-9.8,6.6c5.8-0.8,8.7-4.9,13-7.4C158.7,17.5,155.3,16.8,154.9,18.3z M163.2,17.4
				c-4.5,3.6-10.2,5.7-13.7,10.5c6.7-2.1,11-6.9,16.7-10.1C165.1,17.8,164.4,17.3,163.2,17.4z M147.2,25.1c0.5-2,2.4-3.5,3-4.7
				c-8,6-13.2,16.9-13.1,31.6c0.1,13.2,11.7,21.1,25.5,21.2c18,0.1,32.9-14.6,35-31.6c1.4-11.4-7.4-16.6-15.4-20.3
				c-2.4,1.7-5,4.1-7.9,4.5c1.9-1.8,6-3.1,6.7-5c-6.3,1.5-10.2,6.7-17.2,6.8c0.6-1.7,2.9-2.4,3.3-3.6c-3.4,1.9-6.5,5.2-11.5,4.6
				c2.4-5.6,8.5-7.1,12.5-10.9c-7,2.7-11.7,10.2-19.7,10.6c0.6-1.4,2.1-2.7,2.6-3.6C150,25.3,148,26,147.2,25.1z M169.3,18.1
				c-4.5,3.2-9.8,5.4-13,10.1c7.1-1.7,11.8-6.1,17.8-9.1C172.6,18.8,170.8,18.5,169.3,18.1z M165.5,27.1c5-1.8,9.1-4.5,13.8-6.7
				C173.2,18.6,168.3,24.6,165.5,27.1z M195.8,51.3c1.9-0.3,4.5,0.1,5.2-1.6C199.4,47.9,195.6,48.7,195.8,51.3z M155.2,83.1
				c1.8-0.5,4.4-0.8,6.5-0.3c-0.6-1.8-0.8-4-1.4-5.7c-0.4,0.8-0.9,1.5-1.9,1.7c-1.6-0.9-2.2-2.6-1.8-5.2c-0.2,0-0.4,0-0.5,0
				C155.8,76.8,155.7,80.2,155.2,83.1z M162.8,82.5c1.9-1.8,6-1,6.6-4.3c-3-0.5-5.9-1-8-2.3C161.6,78.4,162.1,80.6,162.8,82.5z
				 M155,83.8c0,0.7-0.4,1-0.3,1.8c1.4,0.1,2.5,0.3,3.6,0.6c0.1-1,0.1-1.9,0.2-2.9C157.1,83.3,156,83.5,155,83.8z M159,86.2
				c1,0.3,2.1,0.4,3.2,0.6c0.1-1.2-0.3-1.9-0.2-3.1c-0.7-0.4-1.9-0.3-2.9-0.4C159.1,84.3,159,85.3,159,86.2z"/>
			<path fill-rule="evenodd" clip-rule="evenodd" d="M97.7,39.3c-4.2,0.2-5.7-5.3-2.4-7.2c1.1-0.6,4.7-1.4,6.2-0.7
				c3.1,1.5,0.2,8-2.9,7.8c7.4,23.3-34.6,23.9-38.5,8.4C65.4,62.4,104.5,61.2,97.7,39.3z M99.1,32c0.7,1.5,2.7,0.9,2.9,2.7
				C102.5,32.4,101,31.7,99.1,32z M101.1,37c1.9-2.5,0.4-1.3-0.5-0.8c-3.1,1.7-6.6-1.6-3.5-4c-3.8-0.1-3.8,6.6,0.3,6.3
				c0.2-0.9-0.3-1.4,0.5-1.6c0.4,0.3,0.4,0.9,0.4,1.5C100.1,38,100.6,37.7,101.1,37z M99.2,36c-0.4-1.1,0.5-2.1,1.1-2.6
				C98.1,30,94,36.5,99.2,36z M99.9,35.9c0.6-0.4,1.4-0.5,1.2-1.7C100,33.9,99.5,35.2,99.9,35.9z"/>
			<path fill-rule="evenodd" clip-rule="evenodd" d="M58.1,36.7c3.6-0.6,6.5,1.9,6,5.5c-0.7,4.4-8.6,5-9.8,0.6
				C53.5,39.8,55.4,37.1,58.1,36.7z M56.1,43.1c-3.5-3.3,5.1-5.5,5.5-2c0.3,2.6-3.4,3.3-6,2.9c3.2,2.7,8.6,0.8,8-3.4
				c-0.5-3-6-4.9-7.5-1.9c0.1-0.2,0.7-0.6,0.7-0.1C54.7,38.2,53.9,43.1,56.1,43.1z M61,41.9c0.9-2.4-4.4-2.8-5.2-1.1
				c-0.6,3.2,4.6,3.4,4.5,0.3c-0.4-0.6-1.9-0.9-2.7-0.5c0,0.8,0.2,1.4,1.2,1.3c0.5-0.1,0.2-1.2,1-1c0.2,2.4-3.3,1.7-2.5-0.5
				C58.7,39.5,61,40.2,61,41.9z"/>
		</g>
	</g>
	<g>
		<g>
			<path fill="#DB9018" d="M214.2,140.2c-0.5-0.6-1.8,0.1-2.2-0.4l1.1-0.1l-1.9-0.4c0.8,0.3,0.2,0.7-0.5,0.4
				c-0.2-0.7-0.2-0.3-1.3-0.6c0.2,0.1-0.2,0.4-0.7,0.4c-0.2,0.1-0.4,0.1-0.5,0.1c2,0.2,0.4,1.2,2.9,1.1c-0.4,0-0.4-0.2-0.4-0.2
				c0.3-0.1,1.2-0.2,1.7,0l-0.1-0.2L214.2,140.2z"/>
			<path fill="#DB9018" d="M207.9,140.2l-0.1-0.8l0.3,0c-0.4-0.1-0.5-0.4-0.8-0.4c-0.5,0.2-1.2,0.3-2.2,0.4c-0.7-0.4-0.9-0.3-2-0.4
				c-0.4,0.5,1.3,0.3,1.6,0.8c-0.2,0-0.5,0-0.6-0.1c-0.7,0.2,0.4,0.4,0.4,0.6l1.4-0.2l0.9,0.7c-1.5,0.5-0.1,0.2-0.8,0.9
				c0.6-0.3,2.4,0.1,2.8-0.6l-1.8-0.9C207.2,140.2,207.5,140.1,207.9,140.2z"/>
			<path fill="#DB9018" d="M87.5,133.3l-0.3-0.3c0.1,0.3,1.2,0.5,1.5,0.3c-0.7-0.1,0.4-0.4,0.5-0.6l-3.9-0.1c0,0.1,0.1,0.3,0.5,0.3
				c-1.1,0-0.9-0.6-1.8-0.6l2.5,1.5l0.1,0C86,133.7,86.6,132.9,87.5,133.3z"/>
			<path fill="#DB9018" d="M5.7,132.2c0.1,0.1,0.3,0.2,0.5,0.2C6.2,132.4,6.2,132.3,5.7,132.2z"/>
			<path fill="#DB9018" d="M82.7,131.5l0.8,0.5C83.3,131.8,83,131.6,82.7,131.5z"/>
			<polygon fill="#DB9018" points="88.3,139.1 88.6,139.3 88.6,139.3 88.3,139.1 			"/>
			<path fill="#DB9018" d="M95.1,140.5c1.5,0.5,0.9,0.7,1.8,1.4l-0.4,0c-0.2,0.1,0.4,0.2,0.6,0.2c-0.4-0.3,0.5-0.2,0.3-0.4l1.7,0.5
				l-0.3-0.4l-1.4-0.9c-0.1,0-0.3,0-0.4-0.1C96.4,140.4,96,140.1,95.1,140.5z"/>
			<path fill="#DB9018" d="M29.6,136.4l0.1,0.2C30,136.6,29.6,136.5,29.6,136.4z"/>
			<path fill="#DB9018" d="M83.7,132.4l0.3,0l-0.6-0.4C83.6,132.1,83.7,132.3,83.7,132.4z"/>
			<path fill="#DB9018" d="M85,133.8c0.8,0.2,1.4,0.3,2,0.4l-0.5-0.3L85,133.8z"/>
			<path fill="#DB9018" d="M61.4,127.5c0,0,0.1-0.1,0.1-0.1C61.5,127.4,61.4,127.4,61.4,127.5z"/>
			<path fill="#DB9018" d="M72.9,127.8c0.4,0.3-0.3,0.8-1.2,0.6c-0.2-0.1,0.1-0.2,0.3-0.3c-1.5,0.4-3.7,0.5-4.7-0.2l0.7,0.7
				c-1.2-0.3-2-0.3-2.8-0.8c0,0.1,0.3,0.2,0.3,0.3c-0.7,0.3-1.5-0.4-2.2-0.2l0.5,0.2c0.1,0.2-0.6,0.1-1,0.1
				c-0.5-0.1-1.5-0.5-0.6-0.7l-1,0.1c0-0.1,0-0.1,0.1-0.2c-0.6,0.4-2,0.1-1.9,0.7c0.6,0.3,0.5,0.6,1.6,0.8c0.9-0.8,2.5,0.1,4.1,0
				c0.4,0.3,0.2,0.5,1.2,0.6c-0.2-0.6-1.9-0.5-1-1.1c0.8-0.2,2.2-0.1,2.5,0.6c-2.4-0.2,0.3,1.3-2.1,0.9c0.5,0.1,0.8,0.5,1.6,0.6
				c1.4-0.2-2.4-1,0.7-0.9l0.2,0.9c0.7,0,1.6,0,2.1,0c-0.8-0.1-1.6-0.3-2-0.7c1.1-0.1,3.3,0.1,3.5-0.4c2.8,0.9,4.8,2.5,7.9,3.1
				c1.2,0,1.1-0.7,0.6-1c1.3,0,0.9,0.5,1.8,0.8c-0.9-0.6-0.6-0.5-0.1-1c0.2,0,0.4,0.1,0.6,0.2l-5.3-3.4
				C76.2,127.4,73.7,128.4,72.9,127.8z"/>
			<path fill="#DB9018" d="M74.9,131.3c0.1,0,0.2,0,0.2-0.1C75,131.2,75,131.2,74.9,131.3z"/>
			<polygon fill="#DB9018" points="70.7,130.5 70.4,130.5 70.7,130.5 			"/>
			<path fill="#DB9018" d="M83,133.4c-0.1,0.1,0,0.1,0.1,0.2l0.4,0.1C83.3,133.5,83.2,133.5,83,133.4z"/>
			<path fill="#DB9018" d="M83.6,132.6c0.1,0,0.1-0.1,0.1-0.2l-0.2,0L83.6,132.6z"/>
			<path fill="#DB9018" d="M56.1,133.3l0.3,0.1C56.4,133.4,56.3,133.3,56.1,133.3z"/>
			<path fill="#DB9018" d="M70.1,131.3c-1.3,0-3.2,0.1-4.2-0.2l0.4,0c-1.5,0-0.5-0.6-1.6-0.7l0,0.9c-0.7-0.3-1.5-0.3-2-0.3
				c0,1.2,3.6-0.1,4.9,0.9c0.3-0.2,0.4-0.4,1.2-0.3c-0.1,0.9,2.4,0.4,3.5,0.7c0.5-0.1-0.9-0.3-0.4-0.5c0.9,0,1.3,0.6,2.4,0.3
				c-0.1,0,0-0.1-0.2-0.1c1.7,0.3,0.4-0.3,0.7-0.5c-0.7,0.2-1.5-0.2-2-0.1c-0.4-0.4-1.3-0.5-2.2-0.6C70.8,131,69.9,131,70.1,131.3z"
				/>
			<path fill="#DB9018" d="M82.1,129.5C82.1,129.5,82.1,129.5,82.1,129.5C82.1,129.5,82.1,129.5,82.1,129.5z"/>
			<path fill="#DB9018" d="M195.2,140.7c0.1,0,0.2,0,0.2-0.1L195.2,140.7z"/>
			<path fill="#DB9018" d="M124,139.5l-0.5,0C123.6,139.5,123.8,139.5,124,139.5z"/>
			<path fill="#DB9018" d="M133.7,142.3c0.2,0.1,0.4,0.2,0.7,0.2L133.7,142.3z"/>
			<polygon fill="#DB9018" points="189.4,140.7 189.5,140.7 189.5,140.7 			"/>
			<path fill="#DB9018" d="M155,140.9c-0.2,0-0.3,0.1-0.4,0.2C154.9,141,155,140.9,155,140.9z"/>
			<polygon fill="#DB9018" points="133.7,142.3 133.6,142.2 133.6,142.2 			"/>
			<path fill="#DB9018" d="M118.8,141.6c-0.1,0-0.2-0.1-0.3-0.1L118.8,141.6z"/>
			<path fill="#DB9018" d="M103.5,140.7c-0.1-0.1-0.3-0.1-0.6-0.1L103.5,140.7z"/>
			<path fill="#DB9018" d="M117.8,139.8l0.1,0.1C117.9,139.9,117.9,139.9,117.8,139.8z"/>
			<polygon fill="#DB9018" points="199,138.4 199,138.5 199.1,138.5 			"/>
			<path fill="#DB9018" d="M201.3,139.6l-0.6-0.1C200.9,139.6,201.1,139.6,201.3,139.6z"/>
			<path fill="#DB9018" d="M163.9,140c0.7,0.2,0.7-0.2,0.4-0.4C164.5,139.8,164.1,139.9,163.9,140z"/>
			<path fill="#DB9018" d="M196.1,133.9c-0.1-0.1-0.3-0.2-0.4-0.3C195.7,133.7,195.9,133.8,196.1,133.9z"/>
			<path fill="#DB9018" d="M160.2,133.7c0.1,0,0.2-0.1,0.2-0.1C160.3,133.6,160.2,133.6,160.2,133.7z"/>
			<path fill="#DB9018" d="M204.3,141.3c-0.5,0.1-1.2-0.1-1.1-0.3c0.4,0,0.8,0.1,1.1,0.2c0.1-0.2-0.5-0.4-0.1-0.6
				c-0.6-0.1-1.8,0.2-1.9-0.4c2-0.1-0.4-0.5-0.6-0.7c0,0.1-0.2,0.1-0.4,0.1c0.9,0.1,1.6,0.2,0.6,0.6l-2.3,0.3c1,0,1.7,0.3,2.7-0.2
				l0.4,0.5c-0.9,0.2-2.2,0.1-3.3-0.1c1.5,0.8,2.9,1,4.9,1.2C205.2,141.7,203.7,141.6,204.3,141.3z"/>
			<polygon fill="#DB9018" points="199.9,135.3 199.9,135.2 199.8,135.2 			"/>
			<path fill="#DB9018" d="M104.1,130.8c0,0,0-0.1-0.2-0.2L104.1,130.8z"/>
			<path fill="#DB9018" d="M109.7,141.5L109.7,141.5C109.6,141.4,109.6,141.4,109.7,141.5z"/>
			<path fill="#DB9018" d="M132.4,133.3c0.1-0.1,0.2-0.2,0.2-0.2C132.4,133.2,132.4,133.3,132.4,133.3z"/>
			<path fill="#DB9018" d="M162,142.2c0.1,0,0.3,0,0.5,0C162.4,142.2,162.2,142.2,162,142.2z"/>
			<path fill="#DB9018" d="M108.8,130.6c0.1,0.1,0.2,0.1,0.2,0.2C109,130.7,108.9,130.7,108.8,130.6z"/>
			<polygon fill="#DB9018" points="139.4,135.7 139.3,135.8 139.4,135.8 			"/>
			<path fill="#DB9018" d="M138.5,136.4l1.4,0.1c0.5-0.1-0.2-0.4,0.5-0.5c0.7,0.2,1.5,0.4,0.5,0.6c0.3,0.1,1.2-0.3,1.8-0.1
				c-0.2-0.3,1.3-0.6,1.6-0.6c-0.1-0.5-1.7-0.3-2.6-0.6l0.2,0.2c-2.1-0.4-0.3,0.6-2.3,0.4l-0.1-0.1l0.3,0.5L138.5,136.4z"/>
			<path fill="#DB9018" d="M141.4,135.2c0.1,0.1,0.2,0.1,0.3,0.1C141.7,135.3,141.6,135.2,141.4,135.2z"/>
			<path fill="#DB9018" d="M150.3,134.7c0.1,0,0.3,0.1,0.4,0.1C150.5,134.8,150.4,134.8,150.3,134.7z"/>
			<path fill="#DB9018" d="M88.1,134.2l0.1,0.1l1.1-0.1C89.3,133.7,88.1,134,88.1,134.2z"/>
			<path fill="#DB9018" d="M172.7,137.5L172.7,137.5l0.5,0.1C173,137.5,172.8,137.4,172.7,137.5z"/>
			<path fill="#DB9018" d="M143.1,136.7c-0.1-0.1-0.2-0.2-0.3-0.2C142.8,136.5,142.8,136.6,143.1,136.7z"/>
			<path fill="#DB9018" d="M174.7,136.5c-0.4-0.1-0.6-0.3-0.9-0.3c0,0.1-0.3,0.3-0.5,0.4C173.9,136.5,174.3,136.4,174.7,136.5z"/>
			<path fill="#DB9018" d="M137.7,134C137.7,134,137.7,134,137.7,134C137.7,134,137.7,134,137.7,134z"/>
			<path fill="#DB9018" d="M201.4,139.2c-0.8-0.5-1.5,0.2-2.3-0.3l-0.1-0.5c-0.6,0-1.4-0.2-1.7-0.5c0.9-0.1,1.1,0,2,0.1
				c0.1-0.3-0.6-0.5-0.7-0.6l0.2,0.3c-1.1,0.4-1.8-0.5-3.2-0.4c-0.2,0-0.1,0.1,0,0.1c-1.2-0.5-2.3,0.2-3.5-0.5l0.4,0.3
				c-0.8-0.2-2.3-0.7-3.8-1.2l0-0.2c0.2-0.1-0.4-0.1-0.7,0l0,0c-0.8-0.2-1.5-0.4-2.1-0.6c0.2-0.1,0.4-0.2,0.7-0.2
				c0.2,0.2,1.6,0.1,1.4,0.5c0.6-0.3,1.7,0.1,2.1,0c-0.8,0.3,0.6,0.5,0.8,0.7c0.3-0.3,1.3,0,1.1-0.4c0.2-0.1-0.4,0.3-0.8,0
				c-0.9-0.4,1.6-0.3,0.5-0.7c1.4,0.3,3.3,0.2,4.7,0.6l-0.8,0.2c0.6-0.1,2.2,0,2.3-0.2c-0.5,0-1,0-1.7-0.1c-0.1-0.5,1.5,0,1.5-0.3
				l1.8,0.8l-0.8,0c0.5,0.3,2.1-0.1,3.3-0.1c-0.8-0.6-1.8,0-3.1-0.3c-0.9-0.2,0.5-0.6-0.4-0.8c0.2-0.1,0.8-0.1,1.1,0l0.3-0.1
				c-0.8-0.6-2.5-0.5-3.7-1c0.1,0.1,0.2,0.1,0.2,0.2c-0.9,0.2-1.8,0.2-2.6,0.1c0.5-0.2,0.6-0.1,0.9,0c0-0.1-0.8-0.2-1.1-0.4
				c0.8-0.2,0.1-0.4,0.6-0.4c-0.5-0.1-0.9-0.1-1.6,0c-0.3,0.2,0.3,0.3,0.2,0.6c-0.7-0.2-0.9,0.5-1.9,0.2c1.3-0.1-0.3-0.6-0.8-0.8
				l0.2,0c-0.4-0.3-0.8-0.4-1-0.1c0.5,0.1,1,0.1,0.9,0.4c-0.3,0-0.7,0-1.1-0.1l0.4,0.3l-1.7-0.1c-0.3-0.3-0.7-0.7-1-1.2
				c-0.4,0.3-1,0-1.4-0.1l0.2,0.1c-0.8,0.3-2.4,0-2.6-0.3c-0.6,0.2,3.8,1.8,0,1.5c-1.5,0-0.9-0.9-1.7-1.2c0,0,0,0.1,0,0.1
				c-0.6,0-0.7-0.3-1.2-0.4c0.4-0.1,0.9-0.1,1.1,0c-0.2-0.4-1.3,0-1.8-0.3c0.6,0.6-1.2,0.2-0.8,0.5c-1.3,0.3-2.6-0.1-3.3-0.6
				c-0.9,0.7-1.5-0.1-2.9,0.2c0.2,0,0.6,0.1,0.9,0c0.8,0.5-1.5,0.2-0.3,0.6c-0.3-0.1,0-0.2,0.3-0.2c0.5,0.1,0.9,0.3,0.8,0.5
				l-1.2,0.4l0.4,0.1l-1.8,0.5c0-0.1,0.1-0.2,0.2-0.3c-2,0.2-4.3-0.2-6.1-0.1c-0.2-1.3-4.3-0.6-5.7-1.5c0.4,0.4,0.5,1,0.2,1.3
				c0.3,0.1,0.9,0.6,1.7,0.5c0.1-0.2,1.1-0.4,0.5-0.7c2,0.2-0.3,0.5,0.2,1c-2.2-0.2-3.5-0.9-4.8-1.3l-0.1,0.1l-1-0.3
				c0.9-0.1,0.9-0.8-0.2-0.6l0.1,0c-0.7,0.3-2-0.1-3-0.1l-0.6-0.4c-1,0-1.1,0.8-1.5,1.2c-1.6,0-2.4-0.6-3.5-1
				c-0.5,0.3-2.9,0.3-1.7,0.8c-1.4-0.3-0.9-2.1-3.5-1.2l0.6,0.3c-2.3-0.1-5.6-0.8-6.8-0.5c0.7,1.2-3,1.1-3.5,2.2
				c0.1-0.3-0.7-0.4-0.8-0.5c-0.2,0.1-0.5,0.2-0.9,0c0.9-0.2-0.5-1.2,1.2-0.7c-0.8-0.8-1.9-1.4-3.8-1.4l0,0.5l1.6-0.1
				c-0.2,0.3,0.6,0.3,0.9,0.5c-2.9,0.2,0.3,1.1-2.7,1c-0.2-0.3-0.1-0.2-0.8-0.3c0.4,0,0.4,0.4-0.2,0.3l-0.5-0.4
				c-1.1,0.8,1.6,0.6,0.7,1.1c1.1,0.4,3,0.6,2.6,1.2c-1.9,0.2-1.5-1.2-3.5-0.9l-0.2,0.3c-0.7-0.2-0.7-0.6-1.1-0.9
				c0,0.1-0.2,0.3-0.7,0.3c-1.1-0.6-1.8-0.8-2.8-1.5c2.8,0.6,2.4-0.4,5.3,0.1c-0.4-0.2-2.5-0.4-2.5-1.1l0,0.5
				c-0.9-0.3-1.8-0.5-3-0.4l0.7,0.3c-1.5-0.4-2.7,0.7-3.9-0.2c0.4,0,0.8,0,1.1,0.1c-0.8-0.2-1.8-0.2-2.7-0.1l-1.8-0.8
				c0,0.2-1.2,0.2-0.6,0.6c-1.3,0.3-1.9-0.4-2.7-0.5c-1.4,0.5,1.2,0.2,1.2,0.9c-1.9,0.2-3.8,0-4.8-0.5c0.4-0.1,0.6-0.2,0.6-0.3
				c-0.1,0.2-0.8,0.1-1.2,0.1l-0.3-0.3c-0.7,0.2-0.6,0.4,0,0.6c-0.7,0-1.4-0.6-2.1-0.1c1.1,0.4,2.6,0.1,3.1,0.3
				c-2.3-0.3-2.4,0.9-5.4,0.5c0,0.1,0.4,0.4-0.1,0.4c-1.3-0.1-0.3-0.6-0.7-1c1,0.2,1.5,0,2.1-0.3l-0.3-0.3c0,0.1-0.7,0.1-0.9,0.2
				l-0.1-0.5c0.1,0.6-1,1-1.8,0.8c0.8-0.4,0.6-0.4,0.9-1c-1.1-0.6-1.3,0.6-2.6-0.1c0.1,0.2,1.2,0.3,0.2,0.5c-0.8,0-0.7-0.4-1.2-0.6
				c0.6,0.5,0.4,0.8,1,1.4c1.4,0.1,0.6,0,1.9,0.2l-1.2,0.4c1.2,0.1,0.8,0.5,0.9,0.7c-2.1,0.4-1.5-0.7-2.8-0.6
				c-0.6-0.3,1.2,0,0.3-0.4c-1.2,0-0.3-0.3-1.6-0.5l0.2,0.2c-0.4,0.3-0.8-0.1-1.3-0.1c-0.5-0.2,0.7-1.6-1.5-1.7l-0.3-0.5
				c-2.5-0.2-3.4,0-5.6-0.1c-0.2,0.1,0.1,0.2,0.2,0.2c-1.5-0.1-3.9,0-5-0.4c-0.5,0-1.8,0.2-1.3,0.5c-0.2-0.1-0.5-0.1-0.8-0.1
				c-0.1,0.3,0.6,0.1,0.6,0.3c-0.2,0-0.3,0-0.3,0c0.2,0.3-0.4,0.9,1.3,0.9c0.7-0.7-1.2-0.1-0.8-0.8c0.6,0,0.5,0.3,0.5,0.4
				c0.7,0,0.7-0.2,0.7-0.4c0.3,0.2,1.2-0.1,1.6,0.3c1.4,0.1-0.1-0.6,0.9-0.5l0.5,0.8l1.5-0.1c2.2,0.3-0.4,1.3,2.2,1.8
				c-0.3-0.4,0.7-1.1,1.9-1.2c-0.7,0-2-0.6-2.9-0.3c1.3-0.6-1.8-0.1-1.1-0.8c0.6,0.3,1.7,0.4,2.5,0.2l-0.3-0.1
				c0.9-0.1,1.5,0.7,2.7,0.5c0.6,0,0.5-0.2,0.4-0.4c0.5,0.1,1,0.3,1,0.1l-0.1-0.3c0.1,0.1,0.1,0.2,0.1,0.3l2,4c-2.2,0-4.8,0-7.4,0.3
				c-0.6,0.8,1.8,0.7,1.6,1l1.2-0.1c-0.1-0.3-2.5-0.1-1.4-0.7c2.1,0.3,3-0.1,5,0.6c-0.6,0.8-2.6-0.2-3.9,0.4c0.5,0,1,0.1,1.4,0.2
				c-1.2,0.1-2.5,0.2-3.9,0.3l-0.3-0.2c0.9-0.1,1.6-0.1,1.7-0.2c-1.2,0-2.2-0.4-2.3-1l0.2,0l-0.4-0.2l-0.9,0.1l-0.3-0.1l0.2,0.1
				l-0.8,0.1l-0.3-0.1c0.1,0,0.1,0.1,0.1,0.1l-0.3,0c-0.6-0.4-2.3-0.7-2.8-1c-0.6-0.2-1.4-0.3-1.9-0.3c0.4,0,1,0.1,0.9,0.3
				c-0.9,0.2-1.4,0.9-2.9,0.3l0.9,0l-2-0.9c-0.7,0.3,1,0.4,1.3,0.8c-1.6-0.4-3,0.7-3.7-0.1c-0.1,0.4-0.3,1.2-1.4,1.1
				c0.8-0.5-0.6-0.3,0-0.9c-0.4-0.3-1.2,0.1-1.2-0.2l0.1,0.2c-1.8,0.7-2.4-0.4-3.1-0.8c-2.2-0.2-3.2,0.1-4.9,0
				c-0.1,0.3-0.6,1.1-1.3,1.1c-0.3-0.4-1.9-0.6-2-1.1c1.3-0.2,1,0.4,1.8,0.6c0.6-0.5,0.1-0.5,0.9-0.8c-0.7,0.2-3.1-0.3-3.9,0.2
				l0.3,0.1c-1.2,0.3-1.5,1.5-3.5,0.8l-0.9-0.3l0.1,0.2c-1.6,0-1.2,0.6-2.9,0.1c0.1,0,0,0.1,0.2,0.1c-1,0.3-2-0.3-2.7-0.4
				c-0.5,0.4,0.1,0.4,0.4,0.7c-1.8,0.1-3.6-0.6-4.7-1.2l-1.1,0.2c0.7,0.2,1.4,0.6,1.2,0.9c-0.6-0.1-0.5-0.3-1.4-0.2
				c0.1,0.3,0.5,0.5,0.9,0.9c-1.8,0.4-0.4-1-1.7-0.2c-0.6,0-0.9-0.4-0.9-0.7l-1,0.4c-0.1-0.4-1.4-0.5-2.2-0.5
				c-0.1-0.2,0.7-0.4,1-0.3c-0.1-0.3-0.9-0.5-1.5-0.5c-0.3,0.9-3.7-0.2-3.1,0.9c-2.5-0.3-6.1-0.5-7.8-0.9c-0.6,0.2-1.7,0.2-1.1,0.6
				c-2.1,0-3.1-1-5.1-0.8c-0.2,0.1,0.9,0,0.8,0.3c-1.3-0.4-2.5,0.3-4.5,0c0.3,0,0.4,0.1,0.4,0.2c-0.2-0.1-0.9-0.3-1.3-0.4
				c-0.3,0.1,0.4,0.1,0.2,0.2c-4,0.3-7-1-10.9-1c1.1,0,1.5,0.6,1.5,0.8L8,133c-0.4-0.3-1.2-0.3-1.9-0.6c-0.1,0.1-0.5,0.2-0.1,0.4
				c-2.3,0.5-3.3-1.2-6-0.9l3.1,1.3l-0.9,0.4l1.4,0.6c-0.9,0.3-1.6-0.5-1.7,0c0.2,0.1,0.6,0.1,0.6,0.3c-0.8,0.1-0.9-0.2-1.5-0.3
				c1.5,0.9,4.7,1,6.4,1.3c0.3,0.1-0.2-0.2-0.2-0.3c0.7,0.1,1.2-0.2,2,0c0.5,0.4-0.5,0.3-0.9,0.3c0,0.3,0.2,0.3,0.7,0.4
				c0.2-0.4,2.7-0.1,3.4-0.6c2.6,0.2-0.5,1.1,2,1l0.8-0.5c1.4,0.4,3.3,0.8,5,0.7l-0.3,0c-0.2-0.2,0.2-0.3,0.4-0.4
				c1.3-0.2,2.4,0.4,3.2,0c1.4,0.6,3.8,1,5.4,1.3c0.5-0.6-2.1-0.6-2.8-1l1.5,0c-0.9,0-1.3-0.3-1.8-0.7c1.3-0.1,1.7,0.5,2.9,0.7
				c-0.1-0.2,0.1-0.3,0.7-0.3l0.1,0.4c0,0,0.1-0.1,0.3-0.1l2.2,0.3c-0.5,0.2-0.5,0.6-1.1,0.6c0.2-0.3-0.3-0.3-0.8-0.3
				c0.5,0.3-0.6,0.2-0.6,0.5c1.2,0,2.6,0.1,3.3,0.2l0.3-0.4c1.1-0.1,2.3,0.2,3,0.1l-0.2-0.2c1.3-0.1,2.6,0.2,3.8-0.2
				c1.1,0.5,2.6,0.9,3.5,1.4c0.5,0.5,3.5-0.6,4.8,0.2c0.1-0.1-0.9-0.4-1.3-0.6c0.9-0.1,1.6,0.6,1.9,0c-2,0.2,0.1-0.4-0.8-0.6
				c0.9,0,1.9,0.1,2.3,0.3c-1.5,0,0.5,0.8-1,0.5c1.2,0.5,2.7,0.7,4.1,0.5c0-0.2,0.2-0.3,0.7-0.4l0.4,0.4c0.7-0.1-1.2-0.4,0.1-0.5
				c1.3,0.6,4.1-0.3,4.6,0.8c1-0.4-1.9-0.5-0.4-1c-0.9-0.4-2.2,0-2.4-0.5c0.9,0.2,0.3-0.5,0.9-0.5l1,0.4l-0.2,0
				c1.6,0.5,4.3,0.3,6.4,0.4c1.8,0.6,3,1.4,5.1,1.4c-0.6-0.3,1.8-0.3,0.5-0.9c1-0.3,2,0.1,2,0.3c-0.9,0.1-0.3,0.1-1,0.2
				c0.5,0.3,1.6,0.3,2.1,0.1c-0.2,0-0.1,0-0.2-0.1c1-0.2,0.5,0.3,1.2,0.4c0.2-0.4,1.7-0.1,2.4-0.3l1,0.6c-0.5-0.4,1-0.1,1.1-0.5
				c0.7,0.3,1.3,0.8,2.4,0.7c-0.4-0.2,1-0.3,1-0.6c1.9-0.3,3,1.1,4.8,0.6c0-0.1-0.4-0.4,0.1-0.4c0.4,0.1,1.1,0.1,1.5,0.1l0,0l0,0
				c0.2,0,0.3,0.1,0.3,0.2c0.7,0.4,1.1,0.8,2.5,1.1c-0.1,0.4-1.4,0.3-1.9,0.1l-0.4-0.4c-0.5,0.7-1.3-0.1-1.7,0.1
				c0.8,0.8,3.4,0.6,4.9,1.1c-0.9,0.6-3,0.7-4.7,0.6l0.8-0.3l-0.9,0l0.9-0.5c-0.9,0.1-1.6-0.1-2.4,0c0.9,0,1.3-0.6,0.8-0.5
				c-1,0.4-1.1-0.3-1.8-0.3c0.4,0,1,0,0.6-0.3c-1.6,0.5-2,0.2-3.4,0.7c0.2-0.7-1.8-0.1-2-0.7l0.7-0.1l-1.4-0.5
				c-1.3,0.6,1.1,0.6-0.8,1c-1.8,0-1.7-0.7-3.1-0.8c0.5,0.4,1.6,0.8,2.7,0.8l-0.7,0.2c0.4,0.3,1.9,0.2,2.7,0.2
				c-1.3-0.5,0.6-0.1,1.2-0.5c0.1,0.4-0.7,0.3,0.2,0.7c-0.9,0-1.1-0.1-2.2,0.1c2.5-0.2,2.2,1.5,4.5,1.2c-1-0.2,0.4-0.6,0.5-0.8
				c0.5,0.1,1.4,0.2,1.8,0.3l-0.4,0.6c1.3,0.3,1.8-1,3.2-0.3c0.2,0.4-1.3,0.1-1,0.2c2,0.4,2.8-0.6,4.6-1c0.1,0.2,0.1,0.6,0.7,0.9
				c-0.2-0.4,0.3-0.5-0.4-0.8c0.6-0.1,1.3,0.1,1.8,0.3c-1.3,0.2,0.5,0.5,0.7,0.7c0.7-0.1-0.2-0.4-0.6-0.5c0.5-0.1,1.2-0.6,1.4-0.1
				c0-0.4-1.4-1-2.4-1.1l0.6-0.1c-0.4-0.2-0.5-0.1-1.2-0.1c0.6-0.3,0.6-0.6,0.5-0.9c-0.1,0.1,0,0.1,0,0.1c-0.5,0.1-0.9,0-0.8-0.2
				c-0.5-0.5,0.7-0.3,1.1-0.6l0.8,0.1l2.6,1.7c1.1,0.2,1.7-0.2,2.6-0.4l0.2,0.4c1,0,2-0.1,1.3-0.7c0,0.1-0.2,0.1-0.4,0.1
				c0-0.1-0.1-0.1-0.1-0.1l0-0.1c1.1,0.2,1.7,0.3,1.8,0.3c-1.8-0.7-0.1-0.8-0.3-1.6l1.8,0.3c-1.1,0.2,0,0.4,0.4,0.5
				c0.1-0.4,1.5,0,2.1,0l0-0.1c0.6-0.1,1.7-0.1,2.4,0.1c0,0.1,0.9,0.9,1.3,1.3c-1.3,0.1-0.5,0.3-0.7,0.6c0.1,0,0.4,0,0.4,0
				c0.2,0.1-0.3,0.2-0.3,0.3c-1.3-0.2-2.7-0.3-3.3-0.9c0.4-0.3,0.7,0.3,1.2,0.1c-0.7-0.4-1.5-0.4-2.6-0.4l-0.4,0.4l-1.1-0.2
				c0.5,0.2,0.2,0.6,1.3,0.7c-0.2,0.3-1.2-0.1-1.9,0l-0.4-0.5c0.1,0.3-1.4,0.3-0.3,0.7l1.8,0.4l-0.5,0.3l1.5,0.1l-0.3-0.3
				c2.4,0.4,0.8-1,3.2-0.3c0.7,0.6,1.6,0.7,3.1,0.6c-1.1-0.2-0.1-0.4-0.5-0.8c1.1-0.2,1.5,0.3,2,0.5c0.3-0.3,0.5-0.6-0.5-0.5
				c-0.1-0.7,1.3,0.1,1.4-0.5c3.3,0.1,2.5,2.2,6.4,1.5l-0.1-0.3c2.4,0.4,3.8,0.1,6.1,0.4l1.8-0.7c-0.4-0.1-1.4-0.7-0.9-1
				c-0.9,0.7-1.8,0.4-2.8,0.8c-0.1-0.2,0.3-0.3,0.5-0.4c-0.6,0-0.9,0.3-1.6,0.2c0-0.1,0.9-0.3,0.3-0.4l-1.1,0.4
				c-1.3-0.2-0.6-1-2.2-0.9c0.3,0.4,0.8,1,1.4,1.1c-0.7,0.1,0.9,0.3,0.3,0.5c-1-0.6-1.5-0.2-2.9-0.5c0.2,0.1,0.2,0.2,0.5,0.2l-2,0.2
				c0.5-0.3-1.6-0.4-1.4-0.9c2.2-0.2,1.5,0.1,4-0.1c-0.7-0.1-1.5-0.6-1.9-1.1c0,0-0.1,0-0.1,0c-0.3-0.5,0-0.6,0.1-1.5
				c1.1,0.6,1.9,0.2,3.2,0.5c0.2,0.5-0.8,0.6-1.5,0.4l1.1,0.3l-0.2-0.2l3-0.1c-0.6,0-0.7-0.3-1-0.5c0.4,0,0.8-0.1,1.2-0.3
				c-0.1,0.4-0.1,0.8,0.3,0.8c1.9-0.1,3-0.4,3.8-0.9l0.2,0c-0.4,0.4,1.3,0.9,1.8,1.3c0-0.5,1-0.3,1.6-0.5c0.1,0.2,0.1,0.4,0,0.6
				c1.9-0.1,4-0.1,5.8-0.1c0.4,1,1,1.6,1.2,2.5c1.2,0.2,2.8,0.4,3.9,0.1l-0.1-0.2c0.5-0.1,1,0,1.4,0.1c0.6-0.2-0.3-0.5,0.1-0.6
				l1.7,0.4c-0.1-0.4-1.5-0.5-2.2-0.5c0.1,0,0.4,0.1,0.3,0.2c-0.8,0.2-2.3-0.6-2.7,0c-0.4-0.1,0.8,0.5-0.6,0.5
				c-0.9,0.2-1.2-0.3-1.2-0.5c0-0.2,1.4-0.3,1-0.6c0.7,0,0.9,0.4,1.9,0.2c-0.7,0-1.6-0.5-2-0.2c-1.3-0.5-1-1.6-0.4-1.6
				c-0.2,0.3,2.5,0.5,0.6,0.9c0.8,0.5,2.2,0.5,3.3,0.8l0-0.1l1.3,0.1c-0.2-0.1-0.6-0.2-0.5-0.5l1.8,0.7c-1-0.5,0.7-0.3,1.2-0.5
				c0.2,0.4,0.8,0.7,0.1,0.8c-0.8,0.2-0.4-0.2-1.1-0.3l0.9,0.6l0.1-0.1l0.5,0.5c1.4,0-0.5-1.1,1.2-0.6l-0.3,0.6c2,0,4.7-0.7,6.1-0.4
				c-0.4-0.4-0.5-1,0.1-1.3c-0.6,0.1-1.9,0-2.7,0c-0.2,0.1,1,0.8,2,0.7c-0.6,1-2.3-0.7-2.6,0.4c-2.5,0.3-1.7-1.1-3.8-0.5
				c0-0.5-0.6-0.2-0.6-0.7c0.7-0.8,2.7,0.1,4.1-0.1c-0.1,0-0.4-0.1-0.4-0.2c1-0.1,1.4,0,2,0.2l-0.1,0.1c1.1,0.5,0.8-0.3,1.5-0.5
				c0.3,0.1,1.2,0,1,0.3l1.3-0.4l-0.1,0.5c0.7,0.1,0.9-0.3,1.5,0l0,0.5l-1.8,0.1c0.9,0.2,0.2,0.5,1.2,0.6c-1-0.5,0.8-0.2,1-0.7
				l0.7,0.3l-0.2-0.1c0.6-0.2,0.6,0.2,1.3,0.1c-0.8,0.2-1.4,0.6-2.3,0.2c0.7,0.3,2.1,0.6,2.4,0.6c0.7,0.2,1.3-0.1,2-0.2
				c-1.3-0.2,0.6-1.4-2.1-1.2c0,0.1,0.3,0.1,0.3,0c-0.4,0.6-1.6-0.1-2.2-0.3c0.2-0.3-0.4-0.4,0.6-0.6c-0.4,0.2,0.8,0.8,1.8,0.5
				l-0.1-0.7l1.5,0l-0.1,0c0.6-0.5,1.5,0.1,2.6-0.1c0.7,0.3,3.5,0.1,2.2,0.9c0.9-0.4,1.7,0.2,2.7,0.3l-1.3,0.3
				c1.4,0.6,1,0.2,2.1,1.1c0.1-0.2,0.4-0.4,0.2-0.6c1.9,0,4.8-0.1,5.9,0.5c1.4,0,1.7-0.9,3.6-0.5c0.4,0.1-0.4,0.7,1,0.5
				c0.1-0.1-1.2-0.6,0.2-0.5c1,0.6,2.4-0.3,3.7,0.2c0.7-0.2,1.9-0.1,1.7-0.6c-1.1,0.1-2.7,0-2.9-0.2c0.1,0.3-0.8,0.3,0,0.5
				c-1.7,0.3-1.1-0.3-2.6-0.1c-0.1-0.2,0.8-0.5,1.1-0.3c0-0.6-3-0.3-1.6-1.1c1.6,0,2,1.3,3.4,0.6c-0.5-0.4-1.4-0.1-2.1-0.7l1.1-0.2
				l0.8,0.5l0-0.1c2-0.5,1.9,0.7,3.7,1c-1.1,0.4,0.2,1.1-0.6,1.3c1.2,0.1,2.1,0,2.1-0.6c-2.3-0.5-0.1-0.7-2.2-1.3
				c0.3-0.2-0.5-0.9,0.8-1c1.4,0.5-0.4,0.5,1,0.7c0.1-0.1,0.2-0.1,0.1-0.2c0.6,0.3,0.8-0.1,1.5,0.3l-0.2-0.1c1-0.4,1.1,0.4,1.9,0
				c-0.3,0.5,0.6,0.4,1.1,0.7c-0.8,0.2-1.3,0.8-3,0.8c-0.2-0.4-0.1-0.6-0.8-0.7l1.1,0.1c-0.2-0.1-0.4-0.2-0.6-0.2l-1,0.2
				c1.3,0.3,0.7,0.7,1.3,1c1.2-0.1,1,0.1,1.8,0c-0.1-0.5,2.3-0.9,3.7-1.2c-0.2,0-0.5,0-0.6,0c-1-0.3,0.7-0.4,0.7-0.6l0.7,0.2
				c-0.1,0-0.2-0.1,0-0.2c1,0.1,1,0.6,2,0.7c0.1-0.3-0.8-0.7-0.2-0.9c0.2-0.3,0.8-0.9,2.2-0.7c0.1,0.1,0.4,0.2,0.8,0.2l-0.2,0
				L201.4,139.2z M92.6,129.8c0.2-0.1,0.5-0.1,0.8-0.1L92.6,129.8z M94.7,135.4c0.1,0,0.3-0.1,0.6-0.1l0.1,0L94.7,135.4z
				 M96.7,135.2c0.1-0.2,0.2-0.3,0.4-0.4l0.2,0.4L96.7,135.2z M104.4,134.9l-1.1,0c0-0.1-0.1-0.2-0.2-0.2c0.4-0.1,0.6-0.2,0.5-0.6
				c-1,0.7-0.8-0.6-1.9-0.4c-0.3-0.4,1.2-0.4,1.5-0.2c0.4,0.5,1.6,0.5,1.7,1.1C105,134.8,104.7,134.9,104.4,134.9z M111,136.9
				l0.2-0.3c-1.6,0.1-3.3,0.2-4.9,0.2c2.9-1.1,4.9-1.9,0.2-1.9l-0.3-0.1c0.6-0.1,1.7-0.1,2.7,0c0.8,0.4,3.3,1.9,3.3,2
				C111.9,137.1,111.5,136.8,111,136.9z M112.3,135c0.1-0.1,0.2-0.1,0.1-0.3c0.9-0.1,0.7,0.1,0.8,0.4L112.3,135z M126,135.2
				c-0.6,0-1.3-0.4-1.8,0l1.1,0.2l-0.8,0.3c0.4-0.1,0.3,0.2,0.1,0.7l-1.3-0.2l0.1,0l-1.3-0.4c0.8-0.2,1.4-0.6,0.3-0.9
				c0.1,0.2-0.3,0.4,0.1,0.5c-0.8,0.2-2.5,0.5-2-0.2c1.4,0.7,0.4-0.8,1.5-0.3c-0.6-0.4-1.2-0.3-1.8-0.5c0.6,0.4-0.2,0.8-1.1,1
				c-0.4-0.1-1.5,0-2.2-0.2c0.3-0.4-0.3-0.6,0.8-0.7c-0.4-0.1-1-0.2-1.7,0c0.3,0.1,0.7,0.1,0.7,0.3c-0.5,0.4-1,0.3-1.3,0.5l-0.7-0.1
				c0.1,0,0.1-0.1,0.2-0.1l-0.7-0.4c1,0.2,0.5-0.2,0.5-0.4c0,0.5-0.7,0-1,0l0.8-0.5c-0.4-0.3-1.3,0.3-1.1-0.2
				c1.6-0.2,2.2-0.1,3.7,0.1l-0.6,0.4c1.6,0.3,1.1-0.6,2.9-0.6c0.7,0.4,2.8,0.1,2.8,0.8c-0.2-0.2,1.2-0.6,1.8-0.3
				C124.6,134.8,126.7,135,126,135.2z M156,137.3l0.2,0.2c-1.6,0.3-3.2-0.9-4-0.1c0,0.3-0.3,0.1-0.3,0.5l-1.1-0.4l0.2,0.2l-1.9-0.2
				l0,0.1c-0.9-0.5-1.5-0.8-2-1.1c0-0.2,0.1-0.3-0.2-0.4c-0.3-0.1-0.5-0.1-0.7-0.1l0,0l0,0c-0.5,0.1-0.8,0.3-1.4,0.4l1.8,0.1
				c0.1,0.4-0.1,0.7-1,0.9c0.3,0,0.5,0.3,0,0.3c0-0.1-1.1-0.3-0.7-0.5c-1.7-0.2-4.5,0.7-6.9,0c1.8,0.4-1.5,0.4,0.5,0.6
				c-1.5,0.5-1.2-0.6-2.6-0.5c-0.1,0.2,0.8,0,1.1,0.4c-2.4,0.2-4-1-6.3-0.9l-0.1,0.4c-0.4-0.1-0.9-0.1-1.4-0.2c0.8-1,1.7-1.9,5-1.6
				l-0.2-0.1c1.7-0.6,3.2,0.9,5.3,0.3c-1-0.4-0.9-0.4-1.9-1.3l1,0.3c-0.2-0.6,0.8-0.2,1.6-0.3l-0.6-0.7c-0.5,0.2-1.6,0.2-1.7,0.1
				c0,0.1-1.8,0.7-2.7,0.5c0.1-0.4,2.3-0.2,1.4-0.9c0.8,0.3,1-0.1,1.9,0.1c-0.8-0.3-0.2-0.6-0.8-0.9l1.5,0.2
				c0.1-0.1-2.1-0.4-0.9-0.9c0.6,0.2,2.2,0,2.2,0.5l0-0.1c1.1-0.1,0.4,0.7,1.8,0.4c0,0.2-0.3,0.4-0.8,0.3c-0.4-0.1-0.4-0.4-1.3-0.5
				c-0.4,0.4,1,0,0.4,0.6c-0.3,0.3-2.2-0.3-1.7,0.4l1.1-0.1c0,0.5,0.8,0.5,0.7,0.8c0.6,0.2,1.3-0.3,2,0.1c0.2,0.3-0.3,0.9,0.8,0.6
				c1-0.7,3.5-0.5,4.5-0.3l0.8,0.3c-0.1,0.3-1.6-0.1-1.1,0.3l1.3,0.1l-0.1-0.2c0.4,0,0.9,0.2,1.3,0.3c-0.4-0.4-1.3-0.2-1.1-0.7
				c0.6-0.1,0.8-0.3,1.3-0.2c-0.1,0-0.2-0.1-0.2-0.2c1.3-0.2,1.2,0.6,1.5,0.8c1.2,0.7-1.3,0.6-1.2,1.1l3.7,0.4
				c-0.3-0.2-0.6-0.3-0.5-0.5c0.9-0.2,0.1-0.4,1.3-0.3c-0.2,0.7,1.6,0.5,2.4,0.9c0.5-0.3,0.6-0.3-0.4-0.3c0.2-0.4,1.4-0.2,1.8-0.3
				c0.2,0.1,0.7,0.2,0.9,0.3c-0.4,0.2-0.3,0.5,0.5,0.7l0,0.1C158.9,137.3,156.8,137.8,156,137.3z M174,137.7c-0.4,0.2-1,0-1.3-0.2
				c-1-0.1-1.9-0.5-2.1-0.1l0.4,0.3c-1.2-0.1-1.3-0.1-2.8-0.2c0.1,0,0.2,0.1,0.2,0.1c-2.8-1.1-5.2-1.5-6.8-1.5
				c0.4-0.4,1.8-0.7,2.5-0.8l-0.5-0.5l-0.4,0.4l-1-0.5c0.3-0.3,1.1-0.2,1.7-0.4c0,0.1,1.8,0.7,2.2,1l-1.5,0.3c0.4-0.1,2.3,0,3,0.2
				c0,0.2-1.3,0.6-1.4,0.1c-0.2,0.3,1.3,0.4,0.3,0.7c1.1,0.4,2.9,0.1,3.7,0l0.2-0.6c0.9-0.2,0.6,0.7,1.7,0.4
				c-1.3-0.1,0.3-0.6-0.8-0.7c0.4-0.2,0.1-0.6,1.1-0.6c0.8,0.8,1.1-0.5,1.9,0.2c0.6-0.2-0.6-0.5,0.5-0.6c1.2,0.4,1.1,0.7,1.2,1.3
				c-1.2,0.1-1.3-0.8-2.2-0.6l1.8,1c-0.4,0.1-0.6,0.1-0.8,0.1c0.4,0.1,0.7,0.2,1,0.4c0.1,0.1,0.3,0.2,0.4,0.3c-1.1,0-2,0-2.2,0.2
				L174,137.7z"/>
			<path fill="#DB9018" d="M129.2,139.9l-2-0.5l0.4,0.4c-1.1,0.2-2-0.4-2,0.1c0.5,0.4,1.4,0.2,1.9,0.6l-0.7,0.2
				c1.2,0.6,0.7-0.5,2.1-0.1c-0.6,0.5,0.1,0,0.7,0.4c-0.5,0.3-2.5-0.2-2.2,0.6c0.7,0.4,2.6-0.9,3.6-0.1l0-0.1
				c1.5-0.1,1.8,0.4,2.6,0.7c0.7-0.3,1.5,0.1,2.2,0.2l0-0.2l1,0.1c-0.4-0.4-1.1,0-1.9-0.1l0.1-0.4c-0.9,0.5-1.7-0.3-2.4-0.7
				c1,0.4,3.2,0,3.3,0.8l0.7-0.4l0.3,0.2c0.5-0.3,0.1-0.9-0.9-1c-0.2,0.1-0.3,0.2-0.2,0.3c-0.4-0.2-0.8-0.6-1.9-0.5l0.6,0.2
				c-1.5,0-2.6-0.2-3.1-0.6c-0.1,0.4-0.5,0.9-1,1.2C129.2,140.6,129.7,140.7,129.2,139.9z"/>
			<path fill="#DB9018" d="M195.9,140.4C195.9,140.4,196,140.4,195.9,140.4L195.9,140.4z"/>
			<polygon fill="#DB9018" points="131.4,140 131.4,140 131.4,140 			"/>
			<path fill="#DB9018" d="M200.7,138.9c0.1-0.3-0.7-0.3-1-0.5C199.3,138.8,200.7,138.5,200.7,138.9z"/>
			<path fill="#DB9018" d="M200.7,138l-0.6,0.2l1,0.1C200.7,138.3,200.7,138.1,200.7,138z"/>
			<path fill="#DB9018" d="M203,135.8c-0.8,0-1.1-0.1-1.6-0.4c0.1,0.7,2.5,0.5,3,0.1c-1.2-0.1-1.7-0.9-3.1-0.8
				C201.7,135.6,203.2,134.9,203,135.8z"/>
			<polygon fill="#DB9018" points="201.5,134.4 200.7,134.2 200.6,134.3 201.4,134.5 			"/>
			<path fill="#DB9018" d="M182.6,142.2c0.3,0.1,0.8,0.4,0.9,0.1C183.1,142.1,182.8,142.1,182.6,142.2z"/>
			<path fill="#DB9018" d="M25.6,139.5c-2.7-0.2-4.4-0.3-6.2-0.4L25.6,139.5z"/>
			<path fill="#DB9018" d="M162.2,140.5c1.9-0.6,2.5,1,4.8,0.4c-1.7-0.2-2.4-0.7-4-1L162.2,140.5z"/>
			<path fill="#DB9018" d="M162.3,141.2c-0.3,0.4,1.3,0.5,0.9,1.1l0.6-0.6C162.8,141.7,163.5,141.3,162.3,141.2z"/>
			<polygon fill="#DB9018" points="171.6,133.3 171.5,133.2 171.1,133 			"/>
			<polygon fill="#DB9018" points="155.1,141.8 156,141.7 155.8,141.6 			"/>
			<polygon fill="#DB9018" points="171.8,132.1 171,132.2 172.1,132.3 			"/>
			<path fill="#DB9018" d="M164.9,135.1l-0.6-0.2C163.9,135.3,164.8,135.1,164.9,135.1z"/>
			<polygon fill="#DB9018" points="150,141.4 150.7,141.7 150.8,141.6 150,141.4 			"/>
			<path fill="#DB9018" d="M159.4,133.2c0.1-0.2,0.3-0.3-0.4-0.4C158.1,133.1,159.5,132.9,159.4,133.2z"/>
			<path fill="#DB9018" d="M159.4,133.2C159.3,133.2,159.3,133.3,159.4,133.2C159.3,133.3,159.4,133.2,159.4,133.2z"/>
			<path fill="#DB9018" d="M149.3,135.9l-0.3-0.1C149,135.9,149.2,135.9,149.3,135.9z"/>
			<path fill="#DB9018" d="M149.3,135.9c0.3,0.1,0.5,0.2,0.9,0C150,135.8,149.6,135.9,149.3,135.9z"/>
			<path fill="#DB9018" d="M145.7,135.7c-0.3-0.2-0.4-0.2-0.1,0l-0.3,0c-0.1,0.2,0.2,0.2,0.7,0.2l0.3,0.2l-0.2-0.2
				C146,135.8,146,135.7,145.7,135.7z"/>
			<path fill="#DB9018" d="M131.1,141.9c0,0.3-0.3,0.4-1.5,0.5c1.5,0.2,1.7,0,3,0.1C131.9,142.4,132.2,141.9,131.1,141.9z"/>
			<path fill="#DB9018" d="M133,142.6l-0.4,0C132.7,142.6,132.8,142.6,133,142.6z"/>
			<polygon fill="#DB9018" points="150,131.8 149.7,131.7 150.4,132.3 			"/>
			<path fill="#DB9018" d="M128.6,142.5c-0.2,0.1-0.5,0.1-0.7,0.1C127.7,142.6,128.6,142.8,128.6,142.5z"/>
			<path fill="#DB9018" d="M133,136.3c0.3,0.5,0.7-0.1,1.2-0.1C133.9,136.2,133.2,136.1,133,136.3z"/>
			<path fill="#DB9018" d="M124.7,141.2c1.1,0.3,0.7-0.3,0.4-0.5C125.3,140.9,124.9,141.1,124.7,141.2z"/>
			<polygon fill="#DB9018" points="130.9,136.3 131.8,136.4 131.1,136.2 			"/>
			<path fill="#DB9018" d="M134.3,132.8c-1.5-0.4,0.9-0.9,0-1.3c0.1,0.2-0.4,0.6-1.3,0.8C134.5,132.2,132.2,133.1,134.3,132.8z"/>
			<path fill="#DB9018" d="M120.2,134.6c-0.1,0-0.2-0.1-0.3-0.1C120,134.5,120.1,134.5,120.2,134.6z"/>
			<path fill="#DB9018" d="M129.5,132.4l-1.3-0.6l0.3-0.1c-0.3-0.3-1.2-0.4-2-0.3C126.4,132,128.7,132,129.5,132.4z"/>
			<path fill="#DB9018" d="M111.7,142.4l0.7-0.1l-0.6-0.2C111.6,141.9,111.9,142.3,111.7,142.4z"/>
			<path fill="#DB9018" d="M122.5,134.8c-0.1,0.3,1,0.2,1.2,0.1C123.3,134.8,122.9,134.8,122.5,134.8z"/>
			<polygon fill="#DB9018" points="107.8,141.2 108.8,141.3 107.8,141.2 			"/>
			<polygon fill="#DB9018" points="102.4,142 103.2,142.2 103.3,142.1 102.5,141.9 			"/>
			<path fill="#DB9018" d="M109.8,130.7l0.8,0.5c-0.8,0.1-0.7-0.4-1.1,0.1l1.3,0C111,131.2,110.5,130.6,109.8,130.7z"/>
			<path fill="#DB9018" d="M67.4,139.4c-0.1,0-0.1,0-0.2-0.1L67.4,139.4z"/>
			<path fill="#DB9018" d="M75.7,141.5c-0.5-0.2-0.9-0.4-0.2-0.6c-1.1-0.1-2.5,0.2-2.5-0.4c0.3-0.2,0.6-0.3,1-0.4
				c-1.6,0-2-0.5-3.5-0.4c0.7,0.3,3.3,0.8,1.8,1.3l-1.1-0.8c-0.5,0.2,0.3,0.3,0.5,0.4c-0.1,0.3-1.5,0.4-1.8,0.1
				c0.1-0.2,1-0.2,0.3-0.5l-2.9-0.8c0.3,0.1,0.2,0.4,0.3,0.5c-0.7,0.1-0.8-0.5-1.8-0.3l1.2,0.6c-2.6-0.3-1.6,0.2-4-0.4l0.1,0.1
				c-0.8-0.1-2.3-0.1-3.1-0.5l0,0.5c-1-0.9-0.7,0.2-2.4-0.2l0.3,0.1c-1.1-0.1-0.6,0.2-0.5,0.6c-1.6,0.2-1.8-1.1-3.5-0.8
				c0.1,0.3-0.5,0.6-0.4,0.8c0.4-0.1,1.1-0.2,1.5,0c0.3,0.5-1.8,0-0.8,0.6c-0.7,0.1-1.2,0.3-1.9,0.3l13.1,0.3c0,0,0,0.1,0.1,0.1
				c0.1-0.1,0.2-0.1,0.3-0.1l3,0.1c-0.1,0.3,1.2,0.2,1.6,0.4c-0.5-0.2-0.6-0.3-0.5-0.4l0.3,0l0.8,0.1c0.7,0.3,3.2-0.4,2.6,0.5
				c0.6,0,1.3-0.4,2.1-0.3c0.1-0.1,0.1-0.2,0.1-0.2l0.1,0l-0.2-0.1L75.7,141.5z"/>
			<path fill="#DB9018" d="M74.1,140.1l0.6,0C74.4,140.1,74.3,140.1,74.1,140.1z"/>
			<path fill="#DB9018" d="M52.3,141.2l-0.9,0C51.7,141.2,52,141.2,52.3,141.2z"/>
			<path fill="#DB9018" d="M78.7,141.2l-1.6-0.1c0,0.2,0.2,0.4,0.1,0.6l2,0C79.1,141.5,78.1,141.4,78.7,141.2z"/>
			<path fill="#DB9018" d="M76.6,142c0.4-0.1,0.6-0.2,0.6-0.3l-1.1,0C76.3,141.8,76.5,141.9,76.6,142z"/>
			<polygon fill="#DB9018" points="77.1,132.3 76.2,132.1 76.7,132.3 			"/>
			<path fill="#DB9018" d="M73,133c-0.3-0.1-1.1-0.3-1.5,0C72.5,133.1,72.1,133,73,133z"/>
			<polygon fill="#DB9018" points="72.8,130 72,129.8 71.9,129.9 			"/>
			<path fill="#DB9018" d="M44.7,139.2c-0.1,0-0.2,0-0.4,0L44.7,139.2z"/>
			<path fill="#DB9018" d="M51.9,140.9l-0.1-0.2l1.1,0.2c0.7-0.7-2.8-0.6-0.7-1.1c-2.7-0.6-5-0.3-7.6-0.6c0.5,0.1,0.1,0.4,0,0.5
				c2.3-0.3,1.4,0.3,3,0.5c-0.5,0.3-3.4,0.4-4.2-0.2l0.8-0.2l-0.8-0.6c-0.2,0.1-0.2,0.2-0.2,0.2c-0.3-0.5-2.4-0.2-3.8-0.3
				c0.9,0.5-1.1,0.8,0.2,1.1l7.1,0.3c0.1,0.1,0.1,0.1,0.3,0.1l-0.2-0.1l2.1,0.1c1.4-0.4,0.1-0.7,2-0.8c0.1,0.3-0.2,0.3-0.5,0.7
				L51.9,140.9z"/>
			<path fill="#DB9018" d="M26.1,139.1L26.1,139.1C26,139,26,139,26.1,139.1z"/>
			<path fill="#DB9018" d="M27.2,139.3c-0.3,0.2-1-0.1-1.1-0.2l0.1,0.5l2,0.1l-1.2-0.7L27.2,139.3z"/>
			<path fill="#DB9018" d="M28.1,139c0.6,0.6,0.2-0.3,1.2,0c-0.6,0.2-0.7,0.8,0.3,1l0-1C29.3,138.9,28.2,138.7,28.1,139z"/>
			<polygon fill="#DB9018" points="37.2,139.9 37.7,139.6 37,139.7 			"/>
			<path fill="#DB9018" d="M36.3,139.7l0.7,0l-0.5-0.4C36.4,139.4,36.3,139.6,36.3,139.7z"/>
			<path fill="#DB9018" d="M34.4,139.8l-1,0.1C33.8,139.9,34.1,139.9,34.4,139.8z"/>
			<polygon fill="#DB9018" points="34.4,139.8 35.2,139.8 35.2,139.7 			"/>
			<path fill="#DB9018" d="M34.9,140.4c1,0.1,1.2-0.3,1.3-0.6l-1.1,0.1L34.9,140.4z"/>
			<polygon fill="#DB9018" points="66.3,130.5 66.4,130.5 65.6,130.2 65.5,130.3 			"/>
			<path fill="#DB9018" d="M61.2,130.6c0.1,0.1,0.3,0.1,0.5,0.2C61.5,130.7,61.4,130.6,61.2,130.6z"/>
			<path fill="#DB9018" d="M61.2,130.6c-0.6-0.3-0.7-0.7-1.6-1c0.2-0.5,0-0.2-0.5-0.6c-0.5,0.3,0.2,0.2,0.3,0.5
				c-0.8,0.2-1.6-0.3-1.5-0.6c1.7-0.1-0.5-0.3,0.5-0.7c-0.1-0.6-2.1-0.5-2.2-0.3c0,0.9-0.5,1.7,0.2,2.3
				C57.7,130.8,60.1,130.3,61.2,130.6z"/>
			<path fill="#DB9018" d="M60.6,127.4c-0.3-0.1-0.4-0.1-0.8-0.1C60.2,127.4,60.6,127.7,60.6,127.4z"/>
			<path fill="#DB9018" d="M49.6,133.7c0.1-0.2,0.2-0.3,0.5-0.3l-1.2-0.2C48.7,133.4,49.5,133.5,49.6,133.7z"/>
			<path fill="#DB9018" d="M50.1,133.3l0.5,0.1C50.4,133.4,50.2,133.3,50.1,133.3z"/>
			<path fill="#DB9018" d="M49.6,133.7L49.6,133.7C49.6,133.7,49.6,133.7,49.6,133.7z"/>
			<path fill="#DB9018" d="M30.6,140c0.3,0.1,0.8,0.2,0.8,0C31.2,139.9,30.9,140,30.6,140z"/>
			<path fill="#DB9018" d="M11.2,138.6c-0.2,0-0.3,0.1-0.5,0.2L11.2,138.6z"/>
			<path fill="#DB9018" d="M3,131.7c0.3,0.3,1.3,0,1.6,0.2c-0.3-0.3-1.6-0.3-2.2-0.3L3,131.7L3,131.7z"/>
		</g>
	</g>
</g>
</svg>
