<?xml version="1.0" encoding="utf-8"?>
<!-- Generator: Adobe Illustrator 17.1.0, SVG Export Plug-In . SVG Version: 6.00 Build 0)  -->
<!DOCTYPE svg PUBLIC "-//W3C//DTD SVG 1.1//EN" "http://www.w3.org/Graphics/SVG/1.1/DTD/svg11.dtd">
<svg version="1.1" id="圖層_1" xmlns="http://www.w3.org/2000/svg" xmlns:xlink="http://www.w3.org/1999/xlink" x="0px" y="0px"
	 viewBox="0 0 168 168" enable-background="new 0 0 168 168" xml:space="preserve">
<filter id="dropshadow" width="130%" height="130%">
 	<feGaussianBlur in="SourceAlpha" stdDeviation="2"/> <!-- stdDeviation is how much to blur -->
 	<feOffset dx="5" dy="5" result="offsetblur"/> <!-- how much to offset -->
 	<feComponentTransfer>
        <feFuncA type="linear" slope="0.2"/>
    </feComponentTransfer>
 	<feMerge> 
 		<feMergeNode/> <!-- this contains the offset blurred image -->
 		<feMergeNode in="SourceGraphic"/> <!-- this contains the element that the filter is applied to -->
 	</feMerge>
</filter>
<g style="filter:url(#dropshadow)">
	<g>
		<path fill="none" stroke="#6C4B40" stroke-width="20" stroke-linecap="round" stroke-linejoin="round" stroke-miterlimit="10" d="
			M49.6,21.8c4.4,0,6.6,2.1,6.6,6.1c0,1-0.4,2.6-1.2,4.5l-8.4,22.7c-0.5,1.2-0.6,2.3-0.6,3.5c0,1.4,0.4,2.8,1.4,4.3
			c3.4,6.1,5.6,10.8,6.8,14.5c0.9,3.6,1.4,7.4,1.4,11.1c0,5.6-1.4,10.3-4.1,14.2c-3.2,4.6-7.7,7-13.6,7c-2.2,0-4.8-0.4-7.6-1.4v24
			c0,3.1-1.5,4.6-4.5,4.6c-3.1,0-4.5-1.5-4.5-4.6V29.8c0-5.3,2.8-8,8.5-8h6.1H49.6z M37,100.4c3,0,5.3-1.3,7-3.9
			c1.7-2.6,2.6-5.4,2.6-8.7c0-2.5-0.4-5.2-1-8.1c-1-3.6-3.5-8.8-7.5-15.5c-0.8-1.3-1-2.7-1-4.1c0-1.5,0.1-3.1,0.5-4.4L46,31.9
			c0-1-0.6-1.5-1.9-1.5H33c-1.8,0-2.6,0.9-2.6,2.6v65.9C33.6,99.9,35.8,100.4,37,100.4z M136.9,26.8c0,3.1-1.5,4.5-4.6,4.5h-5v88.8
			c0,10.1-5.9,15.1-17.6,15.1c-5.7,0-13.3-1.5-22.7-4.5c-2.5-0.9-3.6-2.5-3.6-4.5c0.1-3.2,1.5-4.9,4.1-5.2c0.8,0,2.1,0.3,3.9,0.6
			c9.8,2.6,16.1,4,19.2,4c4.6,0,7.1-2.5,7.1-7.6V31.3H63.2c-3.1,0-4.5-1.4-4.5-4.5c0-3,1.4-4.5,4.5-4.5h69.1
			C135.4,22.3,136.9,23.9,136.9,26.8z M97,45.5c5.7,0,8.5,2.7,8.5,8v41.3c0,5.8-2.8,8.7-8.5,8.7H72.3c-5.8,0-8.7-2.8-8.7-8.7V53.6
			c0-5.3,2.8-8,8.7-8H97z M96.5,91.9V56.5c0-1.5-0.9-2.5-2.5-2.5H75.3c-1.8,0-2.6,0.9-2.6,2.5v35.4c0,2.1,0.8,3,2.6,3H94
			C95.6,94.9,96.5,94,96.5,91.9z"/>
	</g>
	<g>
		<path fill="none" stroke="#FFFFFF" stroke-width="10" stroke-linecap="round" stroke-linejoin="round" stroke-miterlimit="10" d="
			M49.6,21.8c4.4,0,6.6,2.1,6.6,6.1c0,1-0.4,2.6-1.2,4.5l-8.4,22.7c-0.5,1.2-0.6,2.3-0.6,3.5c0,1.4,0.4,2.8,1.4,4.3
			c3.4,6.1,5.6,10.8,6.8,14.5c0.9,3.6,1.4,7.4,1.4,11.1c0,5.6-1.4,10.3-4.1,14.2c-3.2,4.6-7.7,7-13.6,7c-2.2,0-4.8-0.4-7.6-1.4v24
			c0,3.1-1.5,4.6-4.5,4.6c-3.1,0-4.5-1.5-4.5-4.6V29.8c0-5.3,2.8-8,8.5-8h6.1H49.6z M37,100.4c3,0,5.3-1.3,7-3.9
			c1.7-2.6,2.6-5.4,2.6-8.7c0-2.5-0.4-5.2-1-8.1c-1-3.6-3.5-8.8-7.5-15.5c-0.8-1.3-1-2.7-1-4.1c0-1.5,0.1-3.1,0.5-4.4L46,31.9
			c0-1-0.6-1.5-1.9-1.5H33c-1.8,0-2.6,0.9-2.6,2.6v65.9C33.6,99.9,35.8,100.4,37,100.4z M136.9,26.8c0,3.1-1.5,4.5-4.6,4.5h-5v88.8
			c0,10.1-5.9,15.1-17.6,15.1c-5.7,0-13.3-1.5-22.7-4.5c-2.5-0.9-3.6-2.5-3.6-4.5c0.1-3.2,1.5-4.9,4.1-5.2c0.8,0,2.1,0.3,3.9,0.6
			c9.8,2.6,16.1,4,19.2,4c4.6,0,7.1-2.5,7.1-7.6V31.3H63.2c-3.1,0-4.5-1.4-4.5-4.5c0-3,1.4-4.5,4.5-4.5h69.1
			C135.4,22.3,136.9,23.9,136.9,26.8z M97,45.5c5.7,0,8.5,2.7,8.5,8v41.3c0,5.8-2.8,8.7-8.5,8.7H72.3c-5.8,0-8.7-2.8-8.7-8.7V53.6
			c0-5.3,2.8-8,8.7-8H97z M96.5,91.9V56.5c0-1.5-0.9-2.5-2.5-2.5H75.3c-1.8,0-2.6,0.9-2.6,2.5v35.4c0,2.1,0.8,3,2.6,3H94
			C95.6,94.9,96.5,94,96.5,91.9z"/>
	</g>
	<g>
		<path fill="#49913C" d="M49.6,21.8c4.4,0,6.6,2.1,6.6,6.1c0,1-0.4,2.6-1.2,4.5l-8.4,22.7c-0.5,1.2-0.6,2.3-0.6,3.5
			c0,1.4,0.4,2.8,1.4,4.3c3.4,6.1,5.6,10.8,6.8,14.5c0.9,3.6,1.4,7.4,1.4,11.1c0,5.6-1.4,10.3-4.1,14.2c-3.2,4.6-7.7,7-13.6,7
			c-2.2,0-4.8-0.4-7.6-1.4v24c0,3.1-1.5,4.6-4.5,4.6c-3.1,0-4.5-1.5-4.5-4.6V29.8c0-5.3,2.8-8,8.5-8h6.1H49.6z M37,100.4
			c3,0,5.3-1.3,7-3.9c1.7-2.6,2.6-5.4,2.6-8.7c0-2.5-0.4-5.2-1-8.1c-1-3.6-3.5-8.8-7.5-15.5c-0.8-1.3-1-2.7-1-4.1
			c0-1.5,0.1-3.1,0.5-4.4L46,31.9c0-1-0.6-1.5-1.9-1.5H33c-1.8,0-2.6,0.9-2.6,2.6v65.9C33.6,99.9,35.8,100.4,37,100.4z M136.9,26.8
			c0,3.1-1.5,4.5-4.6,4.5h-5v88.8c0,10.1-5.9,15.1-17.6,15.1c-5.7,0-13.3-1.5-22.7-4.5c-2.5-0.9-3.6-2.5-3.6-4.5
			c0.1-3.2,1.5-4.9,4.1-5.2c0.8,0,2.1,0.3,3.9,0.6c9.8,2.6,16.1,4,19.2,4c4.6,0,7.1-2.5,7.1-7.6V31.3H63.2c-3.1,0-4.5-1.4-4.5-4.5
			c0-3,1.4-4.5,4.5-4.5h69.1C135.4,22.3,136.9,23.9,136.9,26.8z M97,45.5c5.7,0,8.5,2.7,8.5,8v41.3c0,5.8-2.8,8.7-8.5,8.7H72.3
			c-5.8,0-8.7-2.8-8.7-8.7V53.6c0-5.3,2.8-8,8.7-8H97z M96.5,91.9V56.5c0-1.5-0.9-2.5-2.5-2.5H75.3c-1.8,0-2.6,0.9-2.6,2.5v35.4
			c0,2.1,0.8,3,2.6,3H94C95.6,94.9,96.5,94,96.5,91.9z"/>
	</g>
</g>
</svg>
