<?xml version="1.0" encoding="utf-8"?>
<!-- Generator: Adobe Illustrator 17.1.0, SVG Export Plug-In . SVG Version: 6.00 Build 0)  -->
<!DOCTYPE svg PUBLIC "-//W3C//DTD SVG 1.1//EN" "http://www.w3.org/Graphics/SVG/1.1/DTD/svg11.dtd">
<svg version="1.1" id="圖層_1" xmlns="http://www.w3.org/2000/svg" xmlns:xlink="http://www.w3.org/1999/xlink" x="0px" y="0px"
	 viewBox="0 0 173 175" enable-background="new 0 0 173 175" xml:space="preserve">
<filter id="dropshadow" width="130%" height="130%">
 	<feGaussianBlur in="SourceAlpha" stdDeviation="2"/> <!-- stdDeviation is how much to blur -->
 	<feOffset dx="5" dy="5" result="offsetblur"/> <!-- how much to offset -->
 	<feComponentTransfer>
        <feFuncA type="linear" slope="0.2"/>
    </feComponentTransfer>
 	<feMerge> 
 		<feMergeNode/> <!-- this contains the offset blurred image -->
 		<feMergeNode in="SourceGraphic"/> <!-- this contains the element that the filter is applied to -->
 	</feMerge>
</filter>
<g style="filter:url(#dropshadow)">
	<g>
		<path fill="none" stroke="#6C4B40" stroke-width="20" stroke-linecap="round" stroke-linejoin="round" stroke-miterlimit="10" d="
			M134.8,38.9c0,3.2-1.6,4.8-4.6,4.8H86.9v13.9h49.9c3.2,0,4.8,1.6,4.8,4.6c0,3.2-1.6,4.6-4.8,4.6h-23.1l-6.3,19.7h21.3
			c3,0,4.6,1.6,4.6,4.6c0,3.2-1.6,4.6-4.6,4.6H86.9v15.5h49.6c3,0,4.6,1.6,4.6,4.6c0,3.2-1.6,4.8-4.6,4.8H86.9v18.5
			c0,3-1.7,4.6-5.2,4.6c-3.2,0-4.8-1.6-4.8-4.6v-18.5H26.9c-3.2,0-4.6-1.6-4.6-4.8c0-3,1.5-4.6,4.6-4.6H77V95.8H34.7
			c-3.2,0-4.6-1.5-4.6-4.6c0-3,1.5-4.6,4.6-4.6H57l-5.9-19.7H26.5c-3.2,0-4.8-1.5-4.8-4.6c0-3,1.6-4.6,4.8-4.6H77V43.7H34.7
			c-3.2,0-4.6-1.6-4.6-4.8c0-3,1.5-4.6,4.6-4.6H77v-7.7c0-3.2,1.6-4.8,4.8-4.8c3.4,0,5.2,1.6,5.2,4.8v7.7h43.3
			C133.3,34.3,134.8,35.9,134.8,38.9z M97.1,86.5l6.3-19.7h-42l5.9,19.7H97.1z"/>
	</g>
	<g>
		<path fill="none" stroke="#FFFFFF" stroke-width="10" stroke-linecap="round" stroke-linejoin="round" stroke-miterlimit="10" d="
			M134.8,38.9c0,3.2-1.6,4.8-4.6,4.8H86.9v13.9h49.9c3.2,0,4.8,1.6,4.8,4.6c0,3.2-1.6,4.6-4.8,4.6h-23.1l-6.3,19.7h21.3
			c3,0,4.6,1.6,4.6,4.6c0,3.2-1.6,4.6-4.6,4.6H86.9v15.5h49.6c3,0,4.6,1.6,4.6,4.6c0,3.2-1.6,4.8-4.6,4.8H86.9v18.5
			c0,3-1.7,4.6-5.2,4.6c-3.2,0-4.8-1.6-4.8-4.6v-18.5H26.9c-3.2,0-4.6-1.6-4.6-4.8c0-3,1.5-4.6,4.6-4.6H77V95.8H34.7
			c-3.2,0-4.6-1.5-4.6-4.6c0-3,1.5-4.6,4.6-4.6H57l-5.9-19.7H26.5c-3.2,0-4.8-1.5-4.8-4.6c0-3,1.6-4.6,4.8-4.6H77V43.7H34.7
			c-3.2,0-4.6-1.6-4.6-4.8c0-3,1.5-4.6,4.6-4.6H77v-7.7c0-3.2,1.6-4.8,4.8-4.8c3.4,0,5.2,1.6,5.2,4.8v7.7h43.3
			C133.3,34.3,134.8,35.9,134.8,38.9z M97.1,86.5l6.3-19.7h-42l5.9,19.7H97.1z"/>
	</g>
	<g>
		<path fill="#3D87AB" d="M134.8,38.9c0,3.2-1.6,4.8-4.6,4.8H86.9v13.9h49.9c3.2,0,4.8,1.6,4.8,4.6c0,3.2-1.6,4.6-4.8,4.6h-23.1
			l-6.3,19.7h21.3c3,0,4.6,1.6,4.6,4.6c0,3.2-1.6,4.6-4.6,4.6H86.9v15.5h49.6c3,0,4.6,1.6,4.6,4.6c0,3.2-1.6,4.8-4.6,4.8H86.9v18.5
			c0,3-1.7,4.6-5.2,4.6c-3.2,0-4.8-1.6-4.8-4.6v-18.5H26.9c-3.2,0-4.6-1.6-4.6-4.8c0-3,1.5-4.6,4.6-4.6H77V95.8H34.7
			c-3.2,0-4.6-1.5-4.6-4.6c0-3,1.5-4.6,4.6-4.6H57l-5.9-19.7H26.5c-3.2,0-4.8-1.5-4.8-4.6c0-3,1.6-4.6,4.8-4.6H77V43.7H34.7
			c-3.2,0-4.6-1.6-4.6-4.8c0-3,1.5-4.6,4.6-4.6H77v-7.7c0-3.2,1.6-4.8,4.8-4.8c3.4,0,5.2,1.6,5.2,4.8v7.7h43.3
			C133.3,34.3,134.8,35.9,134.8,38.9z M97.1,86.5l6.3-19.7h-42l5.9,19.7H97.1z"/>
	</g>
</g>
</svg>
