<?xml version="1.0" encoding="utf-8"?>
<!-- Generator: Adobe Illustrator 17.1.0, SVG Export Plug-In . SVG Version: 6.00 Build 0)  -->
<!DOCTYPE svg PUBLIC "-//W3C//DTD SVG 1.1//EN" "http://www.w3.org/Graphics/SVG/1.1/DTD/svg11.dtd">
<svg version="1.1" id="圖層_1" xmlns="http://www.w3.org/2000/svg" xmlns:xlink="http://www.w3.org/1999/xlink" x="0px" y="0px"
	 viewBox="0 0 180 173" enable-background="new 0 0 180 173" xml:space="preserve">
<filter id="dropshadow" width="130%" height="130%">
 	<feGaussianBlur in="SourceAlpha" stdDeviation="2"/> <!-- stdDeviation is how much to blur -->
 	<feOffset dx="5" dy="5" result="offsetblur"/> <!-- how much to offset -->
 	<feComponentTransfer>
        <feFuncA type="linear" slope="0.2"/>
    </feComponentTransfer>
 	<feMerge> 
 		<feMergeNode/> <!-- this contains the offset blurred image -->
 		<feMergeNode in="SourceGraphic"/> <!-- this contains the element that the filter is applied to -->
 	</feMerge>
</filter>
<g style="filter:url(#dropshadow)">
	<g>
		<path fill="none" stroke="#6C4B40" stroke-width="20" stroke-linecap="round" stroke-linejoin="round" stroke-miterlimit="10" d="
			M67,33.7c0,3.2-1.6,4.6-4.6,4.6H49.9v32.2h8.7c3,0,4.6,1.6,4.6,4.6c0,3.4-1.6,5.2-4.6,5.2h-8.7v36c2.6-1.3,5.8-3,9.3-5
			c1.3-0.3,2-0.5,2.1-0.5c3.4,0,5.2,2,5.2,5.7c0,1.1-0.8,2.3-2.3,3.3c-3.4,2.6-8.1,5.3-13.9,7.9c-7.3,3.3-14.2,6-20.5,7.8
			c-1.1,0.4-1.9,0.7-2.6,0.7c-3.4,0-5.2-1.7-5.2-5.2c0-2.9,1.2-4.9,3.6-5.7c6-1.6,11-3.3,15-4.9V80.3H30.2c-3.2,0-4.6-1.7-4.6-5.2
			c0-3,1.5-4.6,4.6-4.6h10.3V38.3H28.2c-3.2,0-4.6-1.5-4.6-4.6c0-3,1.5-4.6,4.6-4.6h34.2C65.4,29,67,30.6,67,33.7z M108.1,23.5
			c6.8,7.2,13.4,13,19.9,17.5c4.5,3.4,10.5,6.9,18.1,10.3c1.3,1.1,2.1,2.5,2.1,4.1c-0.3,3.3-2,5-5.2,5.2c-1.1,0-2.1-0.3-3.2-0.9
			c-5.3-2.6-10.3-5.8-15.1-9.3c-6.6-4.8-13.5-10.9-20.7-18.4c-0.5-0.5-0.9-0.8-1.5-0.8c-0.4,0-0.9,0.4-1.6,1.1
			c-9,10.9-20,20.3-33,28.3c-1.2,0.8-2.4,1.1-3.7,1.1c-3.3-0.1-5-2-5.2-5.7c0-0.9,0.7-2,2.1-3c7.4-4,13.1-7.7,17.2-11
			c5.3-4.1,11.4-10.1,18-17.7c1.5-1.9,3.4-2.8,6.1-2.8C104.9,21.4,106.8,22.2,108.1,23.5z M142.5,88.5c0,1.7-0.7,4-1.7,6.8
			c-2.9,7.2-6.4,13.4-10.3,18.7c-6,7.7-12.8,13.5-20.7,17.7c-6.1,3.2-12.8,5.8-20.4,7.7c-6.9,1.6-12.6,2.5-17.2,2.5
			c-3.8-0.3-5.7-2-5.7-5.2c0-2.9,1.3-4.4,4.1-4.6c12.7-1.3,23-3.6,31-7.3c7.4-3.4,13.9-8.3,19.5-15c4.6-5.6,8.9-13.5,12.7-23.8
			c1.3-1.3,2.4-2.1,3-2.1C140.5,83.9,142.5,85.5,142.5,88.5z M109.4,54.5c0,1.1-0.3,2-0.5,3c-3.8,7.2-8.5,13.1-13.9,18
			c-5.3,5-12.1,9.4-20.4,13.4c-1.1,0.5-1.9,0.7-2.4,0.7c-3.2,0-4.6-1.7-4.6-5.2c0-1.3,0.8-2.5,2.5-3.6c9-4.4,15.9-9,20.4-13.8
			c3.6-3.4,7.3-8.6,11.1-15.2c0.9-1.1,2-1.6,3.2-1.6C107.8,50.2,109.4,51.7,109.4,54.5z M124.5,64.8c0.9,0.8,1.5,1.6,1.5,2.5
			c0,1.1-0.3,2.1-0.5,3.2c-2.4,6.8-4.9,12.3-7.8,16.6c-2.9,4.4-6.2,8.1-9.7,11.3c-3.3,2.9-7,5.6-11.3,7.9
			c-4.6,2.6-10.6,5.3-17.7,7.7c-2.1,0.8-3.4,1.1-4.2,1.1c-1.5,0-2.6-0.5-3.7-1.6s-1.5-2.3-1.5-3.6c0-2.4,1.1-4,3.2-4.8
			c6.9-2.1,12.7-4.4,17.2-6.8c4-2.3,7.7-4.6,10.9-7.2c3.3-2.8,6.4-6.1,9.3-10.1c2.8-3.7,5.3-8.7,7.7-14.8c0.5-1.6,1.7-2.5,3.6-2.5
			C122.5,63.7,123.6,64.1,124.5,64.8z"/>
	</g>
	<g>
		<path fill="none" stroke="#FFFFFF" stroke-width="10" stroke-linecap="round" stroke-linejoin="round" stroke-miterlimit="10" d="
			M67,33.7c0,3.2-1.6,4.6-4.6,4.6H49.9v32.2h8.7c3,0,4.6,1.6,4.6,4.6c0,3.4-1.6,5.2-4.6,5.2h-8.7v36c2.6-1.3,5.8-3,9.3-5
			c1.3-0.3,2-0.5,2.1-0.5c3.4,0,5.2,2,5.2,5.7c0,1.1-0.8,2.3-2.3,3.3c-3.4,2.6-8.1,5.3-13.9,7.9c-7.3,3.3-14.2,6-20.5,7.8
			c-1.1,0.4-1.9,0.7-2.6,0.7c-3.4,0-5.2-1.7-5.2-5.2c0-2.9,1.2-4.9,3.6-5.7c6-1.6,11-3.3,15-4.9V80.3H30.2c-3.2,0-4.6-1.7-4.6-5.2
			c0-3,1.5-4.6,4.6-4.6h10.3V38.3H28.2c-3.2,0-4.6-1.5-4.6-4.6c0-3,1.5-4.6,4.6-4.6h34.2C65.4,29,67,30.6,67,33.7z M108.1,23.5
			c6.8,7.2,13.4,13,19.9,17.5c4.5,3.4,10.5,6.9,18.1,10.3c1.3,1.1,2.1,2.5,2.1,4.1c-0.3,3.3-2,5-5.2,5.2c-1.1,0-2.1-0.3-3.2-0.9
			c-5.3-2.6-10.3-5.8-15.1-9.3c-6.6-4.8-13.5-10.9-20.7-18.4c-0.5-0.5-0.9-0.8-1.5-0.8c-0.4,0-0.9,0.4-1.6,1.1
			c-9,10.9-20,20.3-33,28.3c-1.2,0.8-2.4,1.1-3.7,1.1c-3.3-0.1-5-2-5.2-5.7c0-0.9,0.7-2,2.1-3c7.4-4,13.1-7.7,17.2-11
			c5.3-4.1,11.4-10.1,18-17.7c1.5-1.9,3.4-2.8,6.1-2.8C104.9,21.4,106.8,22.2,108.1,23.5z M142.5,88.5c0,1.7-0.7,4-1.7,6.8
			c-2.9,7.2-6.4,13.4-10.3,18.7c-6,7.7-12.8,13.5-20.7,17.7c-6.1,3.2-12.8,5.8-20.4,7.7c-6.9,1.6-12.6,2.5-17.2,2.5
			c-3.8-0.3-5.7-2-5.7-5.2c0-2.9,1.3-4.4,4.1-4.6c12.7-1.3,23-3.6,31-7.3c7.4-3.4,13.9-8.3,19.5-15c4.6-5.6,8.9-13.5,12.7-23.8
			c1.3-1.3,2.4-2.1,3-2.1C140.5,83.9,142.5,85.5,142.5,88.5z M109.4,54.5c0,1.1-0.3,2-0.5,3c-3.8,7.2-8.5,13.1-13.9,18
			c-5.3,5-12.1,9.4-20.4,13.4c-1.1,0.5-1.9,0.7-2.4,0.7c-3.2,0-4.6-1.7-4.6-5.2c0-1.3,0.8-2.5,2.5-3.6c9-4.4,15.9-9,20.4-13.8
			c3.6-3.4,7.3-8.6,11.1-15.2c0.9-1.1,2-1.6,3.2-1.6C107.8,50.2,109.4,51.7,109.4,54.5z M124.5,64.8c0.9,0.8,1.5,1.6,1.5,2.5
			c0,1.1-0.3,2.1-0.5,3.2c-2.4,6.8-4.9,12.3-7.8,16.6c-2.9,4.4-6.2,8.1-9.7,11.3c-3.3,2.9-7,5.6-11.3,7.9
			c-4.6,2.6-10.6,5.3-17.7,7.7c-2.1,0.8-3.4,1.1-4.2,1.1c-1.5,0-2.6-0.5-3.7-1.6s-1.5-2.3-1.5-3.6c0-2.4,1.1-4,3.2-4.8
			c6.9-2.1,12.7-4.4,17.2-6.8c4-2.3,7.7-4.6,10.9-7.2c3.3-2.8,6.4-6.1,9.3-10.1c2.8-3.7,5.3-8.7,7.7-14.8c0.5-1.6,1.7-2.5,3.6-2.5
			C122.5,63.7,123.6,64.1,124.5,64.8z"/>
	</g>
	<g>
		<path fill="#FF5630" d="M67,33.7c0,3.2-1.6,4.6-4.6,4.6H49.9v32.2h8.7c3,0,4.6,1.6,4.6,4.6c0,3.4-1.6,5.2-4.6,5.2h-8.7v36
			c2.6-1.3,5.8-3,9.3-5c1.3-0.3,2-0.5,2.1-0.5c3.4,0,5.2,2,5.2,5.7c0,1.1-0.8,2.3-2.3,3.3c-3.4,2.6-8.1,5.3-13.9,7.9
			c-7.3,3.3-14.2,6-20.5,7.8c-1.1,0.4-1.9,0.7-2.6,0.7c-3.4,0-5.2-1.7-5.2-5.2c0-2.9,1.2-4.9,3.6-5.7c6-1.6,11-3.3,15-4.9V80.3H30.2
			c-3.2,0-4.6-1.7-4.6-5.2c0-3,1.5-4.6,4.6-4.6h10.3V38.3H28.2c-3.2,0-4.6-1.5-4.6-4.6c0-3,1.5-4.6,4.6-4.6h34.2
			C65.4,29,67,30.6,67,33.7z M108.1,23.5c6.8,7.2,13.4,13,19.9,17.5c4.5,3.4,10.5,6.9,18.1,10.3c1.3,1.1,2.1,2.5,2.1,4.1
			c-0.3,3.3-2,5-5.2,5.2c-1.1,0-2.1-0.3-3.2-0.9c-5.3-2.6-10.3-5.8-15.1-9.3c-6.6-4.8-13.5-10.9-20.7-18.4c-0.5-0.5-0.9-0.8-1.5-0.8
			c-0.4,0-0.9,0.4-1.6,1.1c-9,10.9-20,20.3-33,28.3c-1.2,0.8-2.4,1.1-3.7,1.1c-3.3-0.1-5-2-5.2-5.7c0-0.9,0.7-2,2.1-3
			c7.4-4,13.1-7.7,17.2-11c5.3-4.1,11.4-10.1,18-17.7c1.5-1.9,3.4-2.8,6.1-2.8C104.9,21.4,106.8,22.2,108.1,23.5z M142.5,88.5
			c0,1.7-0.7,4-1.7,6.8c-2.9,7.2-6.4,13.4-10.3,18.7c-6,7.7-12.8,13.5-20.7,17.7c-6.1,3.2-12.8,5.8-20.4,7.7
			c-6.9,1.6-12.6,2.5-17.2,2.5c-3.8-0.3-5.7-2-5.7-5.2c0-2.9,1.3-4.4,4.1-4.6c12.7-1.3,23-3.6,31-7.3c7.4-3.4,13.9-8.3,19.5-15
			c4.6-5.6,8.9-13.5,12.7-23.8c1.3-1.3,2.4-2.1,3-2.1C140.5,83.9,142.5,85.5,142.5,88.5z M109.4,54.5c0,1.1-0.3,2-0.5,3
			c-3.8,7.2-8.5,13.1-13.9,18c-5.3,5-12.1,9.4-20.4,13.4c-1.1,0.5-1.9,0.7-2.4,0.7c-3.2,0-4.6-1.7-4.6-5.2c0-1.3,0.8-2.5,2.5-3.6
			c9-4.4,15.9-9,20.4-13.8c3.6-3.4,7.3-8.6,11.1-15.2c0.9-1.1,2-1.6,3.2-1.6C107.8,50.2,109.4,51.7,109.4,54.5z M124.5,64.8
			c0.9,0.8,1.5,1.6,1.5,2.5c0,1.1-0.3,2.1-0.5,3.2c-2.4,6.8-4.9,12.3-7.8,16.6c-2.9,4.4-6.2,8.1-9.7,11.3c-3.3,2.9-7,5.6-11.3,7.9
			c-4.6,2.6-10.6,5.3-17.7,7.7c-2.1,0.8-3.4,1.1-4.2,1.1c-1.5,0-2.6-0.5-3.7-1.6s-1.5-2.3-1.5-3.6c0-2.4,1.1-4,3.2-4.8
			c6.9-2.1,12.7-4.4,17.2-6.8c4-2.3,7.7-4.6,10.9-7.2c3.3-2.8,6.4-6.1,9.3-10.1c2.8-3.7,5.3-8.7,7.7-14.8c0.5-1.6,1.7-2.5,3.6-2.5
			C122.5,63.7,123.6,64.1,124.5,64.8z"/>
	</g>
</g>
</svg>
