<?xml version="1.0" encoding="utf-8"?>
<!-- Generator: Adobe Illustrator 17.1.0, SVG Export Plug-In . SVG Version: 6.00 Build 0)  -->
<!DOCTYPE svg PUBLIC "-//W3C//DTD SVG 1.1//EN" "http://www.w3.org/Graphics/SVG/1.1/DTD/svg11.dtd">
<svg version="1.1" id="圖層_1" xmlns="http://www.w3.org/2000/svg" xmlns:xlink="http://www.w3.org/1999/xlink" x="0px" y="0px"
	 viewBox="0 0 206 206" enable-background="new 0 0 206 206" xml:space="preserve">
<filter id="dropshadow" width="130%" height="130%">
 	<feGaussianBlur in="SourceAlpha" stdDeviation="2"/> <!-- stdDeviation is how much to blur -->
 	<feOffset dx="5" dy="5" result="offsetblur"/> <!-- how much to offset -->
 	<feComponentTransfer>
        <feFuncA type="linear" slope="0.2"/>
    </feComponentTransfer>
 	<feMerge> 
 		<feMergeNode/> <!-- this contains the offset blurred image -->
 		<feMergeNode in="SourceGraphic"/> <!-- this contains the element that the filter is applied to -->
 	</feMerge>
</filter>
<g style="filter:url(#dropshadow)">
	<g>
		<path fill="none" stroke="#6C4B40" stroke-width="20" stroke-linecap="round" stroke-linejoin="round" stroke-miterlimit="10" d="
			M77.7,63.1c0,4.1-2,6-6,6H57.1v99.8c0,3.6-2,5.4-6,5.4c-3.6,0-5.3-1.9-5.3-5.4V69.1H27.2c-4.1,0-6-1.9-6-6c0-3.9,1.9-6,6-6h44.6
			C75.7,57.1,77.7,59.2,77.7,63.1z M37.2,87.1c0,21.5-1.4,41.4-3.9,59.8c-0.9,3.7-3.2,5.4-7.3,5.4c-3.2,0-4.8-1.5-4.8-4.8
			c0-1.5,0.2-3.1,0.7-4.6c2.7-15.2,4.3-34.2,4.8-57.2c0-3.1,1.5-4.6,4.6-4.6C35.2,81.1,37.2,83.2,37.2,87.1z M73.1,33.1
			c0,4.1-1.9,6.1-5.3,6.1h-38c-3.6,0-5.3-2-5.3-6.1c0-3.4,1.7-5.3,5.3-5.3h38C71.3,27.9,73.1,29.7,73.1,33.1z M76.5,86.4v57.9
			c0,3.6-1.9,5.3-5.4,5.3s-5.3-1.7-5.3-5.3V86.4c0-3.4,1.7-5.3,5.3-5.3S76.5,83,76.5,86.4z M175,31.9c0,4.1-1.9,6-5.4,6H86.4
			c-3.6,0-5.3-1.9-5.3-6c0-3.6,1.7-5.4,5.3-5.4h83.1C173.1,26.5,175,28.4,175,31.9z M159.6,95.8c7.5,0,11.2,3.6,11.2,10.6v52.6
			c0,7-3.7,10.6-11.2,10.6H94.4c-7.5,0-11.2-3.6-11.2-10.6v-52.6c0-7,3.7-10.6,11.2-10.6H159.6z M154.9,48.5c6.6,0,10,2.9,10,8.7
			v16.7c0,6.1-3.4,9.2-10,9.2H99.7c-6.1,0-9.2-3.1-9.2-9.2V57.1c0-5.8,3.1-8.7,9.2-8.7H154.9z M120.3,126.3v-19.9H99.7
			c-3.1,0-4.6,1.9-4.6,5.3v14.6H120.3z M120.3,137H95.1v16.5c0,3.7,1.5,5.4,4.6,5.4h20.6V137z M153.7,68.4v-6c0-2.6-1.4-3.9-4.1-3.9
			H105c-2.2,0-3.2,1.4-3.2,3.9v6c0,3.2,1,4.8,3.2,4.8h44.6C152.3,73.1,153.7,71.6,153.7,68.4z M133.1,126.3h25.9v-14.6
			c0-3.4-1.5-5.3-4.6-5.3h-21.3V126.3z M158.9,153.5V137h-25.9v22h21.3C157.4,158.9,158.9,157.2,158.9,153.5z"/>
	</g>
	<g>
		<path fill="none" stroke="#FFFFFF" stroke-width="10" stroke-linecap="round" stroke-linejoin="round" stroke-miterlimit="10" d="
			M77.7,63.1c0,4.1-2,6-6,6H57.1v99.8c0,3.6-2,5.4-6,5.4c-3.6,0-5.3-1.9-5.3-5.4V69.1H27.2c-4.1,0-6-1.9-6-6c0-3.9,1.9-6,6-6h44.6
			C75.7,57.1,77.7,59.2,77.7,63.1z M37.2,87.1c0,21.5-1.4,41.4-3.9,59.8c-0.9,3.7-3.2,5.4-7.3,5.4c-3.2,0-4.8-1.5-4.8-4.8
			c0-1.5,0.2-3.1,0.7-4.6c2.7-15.2,4.3-34.2,4.8-57.2c0-3.1,1.5-4.6,4.6-4.6C35.2,81.1,37.2,83.2,37.2,87.1z M73.1,33.1
			c0,4.1-1.9,6.1-5.3,6.1h-38c-3.6,0-5.3-2-5.3-6.1c0-3.4,1.7-5.3,5.3-5.3h38C71.3,27.9,73.1,29.7,73.1,33.1z M76.5,86.4v57.9
			c0,3.6-1.9,5.3-5.4,5.3s-5.3-1.7-5.3-5.3V86.4c0-3.4,1.7-5.3,5.3-5.3S76.5,83,76.5,86.4z M175,31.9c0,4.1-1.9,6-5.4,6H86.4
			c-3.6,0-5.3-1.9-5.3-6c0-3.6,1.7-5.4,5.3-5.4h83.1C173.1,26.5,175,28.4,175,31.9z M159.6,95.8c7.5,0,11.2,3.6,11.2,10.6v52.6
			c0,7-3.7,10.6-11.2,10.6H94.4c-7.5,0-11.2-3.6-11.2-10.6v-52.6c0-7,3.7-10.6,11.2-10.6H159.6z M154.9,48.5c6.6,0,10,2.9,10,8.7
			v16.7c0,6.1-3.4,9.2-10,9.2H99.7c-6.1,0-9.2-3.1-9.2-9.2V57.1c0-5.8,3.1-8.7,9.2-8.7H154.9z M120.3,126.3v-19.9H99.7
			c-3.1,0-4.6,1.9-4.6,5.3v14.6H120.3z M120.3,137H95.1v16.5c0,3.7,1.5,5.4,4.6,5.4h20.6V137z M153.7,68.4v-6c0-2.6-1.4-3.9-4.1-3.9
			H105c-2.2,0-3.2,1.4-3.2,3.9v6c0,3.2,1,4.8,3.2,4.8h44.6C152.3,73.1,153.7,71.6,153.7,68.4z M133.1,126.3h25.9v-14.6
			c0-3.4-1.5-5.3-4.6-5.3h-21.3V126.3z M158.9,153.5V137h-25.9v22h21.3C157.4,158.9,158.9,157.2,158.9,153.5z"/>
	</g>
	<g>
		<path fill="#FF5291" d="M77.7,63.1c0,4.1-2,6-6,6H57.1v99.8c0,3.6-2,5.4-6,5.4c-3.6,0-5.3-1.9-5.3-5.4V69.1H27.2c-4.1,0-6-1.9-6-6
			c0-3.9,1.9-6,6-6h44.6C75.7,57.1,77.7,59.2,77.7,63.1z M37.2,87.1c0,21.5-1.4,41.4-3.9,59.8c-0.9,3.7-3.2,5.4-7.3,5.4
			c-3.2,0-4.8-1.5-4.8-4.8c0-1.5,0.2-3.1,0.7-4.6c2.7-15.2,4.3-34.2,4.8-57.2c0-3.1,1.5-4.6,4.6-4.6C35.2,81.1,37.2,83.2,37.2,87.1z
			 M73.1,33.1c0,4.1-1.9,6.1-5.3,6.1h-38c-3.6,0-5.3-2-5.3-6.1c0-3.4,1.7-5.3,5.3-5.3h38C71.3,27.9,73.1,29.7,73.1,33.1z M76.5,86.4
			v57.9c0,3.6-1.9,5.3-5.4,5.3s-5.3-1.7-5.3-5.3V86.4c0-3.4,1.7-5.3,5.3-5.3S76.5,83,76.5,86.4z M175,31.9c0,4.1-1.9,6-5.4,6H86.4
			c-3.6,0-5.3-1.9-5.3-6c0-3.6,1.7-5.4,5.3-5.4h83.1C173.1,26.5,175,28.4,175,31.9z M159.6,95.8c7.5,0,11.2,3.6,11.2,10.6v52.6
			c0,7-3.7,10.6-11.2,10.6H94.4c-7.5,0-11.2-3.6-11.2-10.6v-52.6c0-7,3.7-10.6,11.2-10.6H159.6z M154.9,48.5c6.6,0,10,2.9,10,8.7
			v16.7c0,6.1-3.4,9.2-10,9.2H99.7c-6.1,0-9.2-3.1-9.2-9.2V57.1c0-5.8,3.1-8.7,9.2-8.7H154.9z M120.3,126.3v-19.9H99.7
			c-3.1,0-4.6,1.9-4.6,5.3v14.6H120.3z M120.3,137H95.1v16.5c0,3.7,1.5,5.4,4.6,5.4h20.6V137z M153.7,68.4v-6c0-2.6-1.4-3.9-4.1-3.9
			H105c-2.2,0-3.2,1.4-3.2,3.9v6c0,3.2,1,4.8,3.2,4.8h44.6C152.3,73.1,153.7,71.6,153.7,68.4z M133.1,126.3h25.9v-14.6
			c0-3.4-1.5-5.3-4.6-5.3h-21.3V126.3z M158.9,153.5V137h-25.9v22h21.3C157.4,158.9,158.9,157.2,158.9,153.5z"/>
	</g>
</g>
</svg>
